<svg xmlns="http://www.w3.org/2000/svg" xmlns:xlink="http://www.w3.org/1999/xlink" width="2743" zoomAndPan="magnify" viewBox="0 0 2057.25 374.250002" height="499" preserveAspectRatio="xMidYMid meet" version="1.0"><defs><g/><clipPath id="0de20d1c7e"><path d="M 1.683594 34 L 1943 34 L 1943 343 L 1.683594 343 Z M 1.683594 34 " clip-rule="nonzero"/></clipPath><clipPath id="b38b7bbb8b"><path d="M 0.683594 0.25 L 386 0.25 L 386 238 L 0.683594 238 Z M 0.683594 0.25 " clip-rule="nonzero"/></clipPath><clipPath id="4d3d34894a"><path d="M 5 219 L 289 219 L 289 267.96875 L 5 267.96875 Z M 5 219 " clip-rule="nonzero"/></clipPath><clipPath id="613efada80"><rect x="0" width="1942" y="0" height="309"/></clipPath></defs><g clip-path="url(#0de20d1c7e)"><g transform="matrix(1, 0, 0, 1, 1, 34)"><g clip-path="url(#613efada80)"><g fill="#004aad" fill-opacity="1"><g transform="translate(842.579478, 290.974155)"><g><path d="M 4.78125 -43.34375 L 25.828125 -43.34375 C 29.429688 -43.34375 32.234375 -42.328125 34.234375 -40.296875 C 36.242188 -38.265625 37.25 -35.578125 37.25 -32.234375 C 37.25 -30.578125 37.03125 -29.164062 36.59375 -28 C 36.164062 -26.84375 35.585938 -25.890625 34.859375 -25.140625 C 34.140625 -24.398438 33.289062 -23.851562 32.3125 -23.5 C 31.34375 -23.144531 30.300781 -22.945312 29.1875 -22.90625 L 29.1875 -22.546875 C 30.21875 -22.546875 31.300781 -22.359375 32.4375 -21.984375 C 33.582031 -21.609375 34.628906 -21.015625 35.578125 -20.203125 C 36.535156 -19.398438 37.332031 -18.359375 37.96875 -17.078125 C 38.613281 -15.796875 38.9375 -14.222656 38.9375 -12.359375 C 38.9375 -10.660156 38.65625 -9.054688 38.09375 -7.546875 C 37.53125 -6.035156 36.753906 -4.71875 35.765625 -3.59375 C 34.773438 -2.476562 33.59375 -1.597656 32.21875 -0.953125 C 30.851562 -0.316406 29.363281 0 27.75 0 L 4.78125 0 Z M 14.21875 -7.953125 L 25.078125 -7.953125 C 26.328125 -7.953125 27.3125 -8.289062 28.03125 -8.96875 C 28.757812 -9.65625 29.125 -10.617188 29.125 -11.859375 L 29.125 -13.96875 C 29.125 -15.207031 28.757812 -16.171875 28.03125 -16.859375 C 27.3125 -17.546875 26.328125 -17.890625 25.078125 -17.890625 L 14.21875 -17.890625 Z M 14.21875 -25.578125 L 23.59375 -25.578125 C 24.832031 -25.578125 25.800781 -25.925781 26.5 -26.625 C 27.207031 -27.332031 27.5625 -28.3125 27.5625 -29.5625 L 27.5625 -31.421875 C 27.5625 -32.660156 27.207031 -33.628906 26.5 -34.328125 C 25.800781 -35.035156 24.832031 -35.390625 23.59375 -35.390625 L 14.21875 -35.390625 Z M 14.21875 -25.578125 "/></g></g></g><g fill="#004aad" fill-opacity="1"><g transform="translate(883.990551, 290.974155)"><g><path d="M 4.28125 0 L 4.28125 -32.59375 L 13.46875 -32.59375 L 13.46875 -25.515625 L 13.78125 -25.515625 C 13.945312 -26.429688 14.238281 -27.3125 14.65625 -28.15625 C 15.070312 -29.007812 15.617188 -29.765625 16.296875 -30.421875 C 16.984375 -31.085938 17.800781 -31.613281 18.75 -32 C 19.707031 -32.394531 20.828125 -32.59375 22.109375 -32.59375 L 23.71875 -32.59375 L 23.71875 -24.03125 L 21.421875 -24.03125 C 18.734375 -24.03125 16.734375 -23.675781 15.421875 -22.96875 C 14.117188 -22.269531 13.46875 -20.96875 13.46875 -19.0625 L 13.46875 0 Z M 4.28125 0 "/></g></g></g><g fill="#004aad" fill-opacity="1"><g transform="translate(909.073118, 290.974155)"><g><path d="M 8.875 -36.078125 C 7.007812 -36.078125 5.65625 -36.5 4.8125 -37.34375 C 3.96875 -38.195312 3.546875 -39.285156 3.546875 -40.609375 L 3.546875 -41.96875 C 3.546875 -43.300781 3.96875 -44.390625 4.8125 -45.234375 C 5.65625 -46.085938 7.007812 -46.515625 8.875 -46.515625 C 10.738281 -46.515625 12.09375 -46.085938 12.9375 -45.234375 C 13.789062 -44.390625 14.21875 -43.300781 14.21875 -41.96875 L 14.21875 -40.609375 C 14.21875 -39.285156 13.789062 -38.195312 12.9375 -37.34375 C 12.09375 -36.5 10.738281 -36.078125 8.875 -36.078125 Z M 4.28125 -32.59375 L 13.46875 -32.59375 L 13.46875 0 L 4.28125 0 Z M 4.28125 -32.59375 "/></g></g></g><g fill="#004aad" fill-opacity="1"><g transform="translate(926.829578, 290.974155)"><g><path d="M 24.28125 -5.46875 L 23.96875 -5.46875 C 23.71875 -4.59375 23.320312 -3.769531 22.78125 -3 C 22.25 -2.238281 21.597656 -1.578125 20.828125 -1.015625 C 20.066406 -0.460938 19.195312 -0.03125 18.21875 0.28125 C 17.25 0.59375 16.25 0.75 15.21875 0.75 C 11.070312 0.75 7.941406 -0.707031 5.828125 -3.625 C 3.722656 -6.550781 2.671875 -10.785156 2.671875 -16.328125 C 2.671875 -21.878906 3.722656 -26.101562 5.828125 -29 C 7.941406 -31.894531 11.070312 -33.34375 15.21875 -33.34375 C 17.320312 -33.34375 19.191406 -32.757812 20.828125 -31.59375 C 22.460938 -30.4375 23.507812 -28.953125 23.96875 -27.140625 L 24.28125 -27.140625 L 24.28125 -45.953125 L 33.46875 -45.953125 L 33.46875 0 L 24.28125 0 Z M 18.25 -6.703125 C 19.988281 -6.703125 21.425781 -7.125 22.5625 -7.96875 C 23.707031 -8.820312 24.28125 -9.992188 24.28125 -11.484375 L 24.28125 -21.109375 C 24.28125 -22.597656 23.707031 -23.765625 22.5625 -24.609375 C 21.425781 -25.460938 19.988281 -25.890625 18.25 -25.890625 C 16.507812 -25.890625 15.070312 -25.28125 13.9375 -24.0625 C 12.800781 -22.84375 12.234375 -21.195312 12.234375 -19.125 L 12.234375 -13.46875 C 12.234375 -11.40625 12.800781 -9.757812 13.9375 -8.53125 C 15.070312 -7.3125 16.507812 -6.703125 18.25 -6.703125 Z M 18.25 -6.703125 "/></g></g></g><g fill="#004aad" fill-opacity="1"><g transform="translate(964.577609, 290.974155)"><g><path d="M 34.46875 2.359375 C 34.46875 4.097656 34.164062 5.628906 33.5625 6.953125 C 32.957031 8.273438 31.972656 9.398438 30.609375 10.328125 C 29.242188 11.265625 27.429688 11.96875 25.171875 12.4375 C 22.921875 12.914062 20.140625 13.15625 16.828125 13.15625 C 14.015625 13.15625 11.625 12.976562 9.65625 12.625 C 7.6875 12.28125 6.09375 11.785156 4.875 11.140625 C 3.65625 10.503906 2.765625 9.71875 2.203125 8.78125 C 1.640625 7.851562 1.359375 6.789062 1.359375 5.59375 C 1.359375 3.769531 1.894531 2.335938 2.96875 1.296875 C 4.050781 0.265625 5.546875 -0.375 7.453125 -0.625 L 7.453125 -1.296875 C 5.878906 -1.585938 4.695312 -2.257812 3.90625 -3.3125 C 3.125 -4.375 2.734375 -5.609375 2.734375 -7.015625 C 2.734375 -7.890625 2.90625 -8.644531 3.25 -9.28125 C 3.601562 -9.925781 4.0625 -10.484375 4.625 -10.953125 C 5.1875 -11.429688 5.835938 -11.816406 6.578125 -12.109375 C 7.328125 -12.398438 8.070312 -12.628906 8.8125 -12.796875 L 8.8125 -13.046875 C 6.832031 -13.953125 5.363281 -15.203125 4.40625 -16.796875 C 3.457031 -18.390625 2.984375 -20.242188 2.984375 -22.359375 C 2.984375 -25.671875 4.128906 -28.328125 6.421875 -30.328125 C 8.722656 -32.335938 12.234375 -33.34375 16.953125 -33.34375 C 19.109375 -33.34375 20.953125 -33.132812 22.484375 -32.71875 L 22.484375 -33.96875 C 22.484375 -35.707031 22.90625 -36.957031 23.75 -37.71875 C 24.601562 -38.488281 25.816406 -38.875 27.390625 -38.875 L 32.53125 -38.875 L 32.53125 -32.046875 L 25.328125 -32.046875 L 25.328125 -31.671875 C 27.234375 -30.753906 28.640625 -29.5 29.546875 -27.90625 C 30.460938 -26.3125 30.921875 -24.460938 30.921875 -22.359375 C 30.921875 -19.085938 29.769531 -16.46875 27.46875 -14.5 C 25.175781 -12.53125 21.671875 -11.546875 16.953125 -11.546875 C 14.835938 -11.546875 12.910156 -11.773438 11.171875 -12.234375 C 10.222656 -11.609375 9.75 -10.738281 9.75 -9.625 C 9.75 -8.832031 10.046875 -8.21875 10.640625 -7.78125 C 11.242188 -7.351562 12.25 -7.140625 13.65625 -7.140625 L 23.09375 -7.140625 C 27.070312 -7.140625 29.960938 -6.3125 31.765625 -4.65625 C 33.566406 -3 34.46875 -0.660156 34.46875 2.359375 Z M 25.828125 3.59375 C 25.828125 2.644531 25.453125 1.921875 24.703125 1.421875 C 23.960938 0.929688 22.660156 0.6875 20.796875 0.6875 L 9.625 0.6875 C 9.207031 1.09375 8.90625 1.554688 8.71875 2.078125 C 8.53125 2.597656 8.4375 3.101562 8.4375 3.59375 C 8.4375 4.800781 8.953125 5.679688 9.984375 6.234375 C 11.023438 6.796875 12.789062 7.078125 15.28125 7.078125 L 19 7.078125 C 21.476562 7.078125 23.234375 6.796875 24.265625 6.234375 C 25.304688 5.679688 25.828125 4.800781 25.828125 3.59375 Z M 16.953125 -17.578125 C 18.773438 -17.578125 20.128906 -17.957031 21.015625 -18.71875 C 21.910156 -19.488281 22.359375 -20.597656 22.359375 -22.046875 L 22.359375 -22.78125 C 22.359375 -24.238281 21.910156 -25.347656 21.015625 -26.109375 C 20.128906 -26.878906 18.773438 -27.265625 16.953125 -27.265625 C 15.128906 -27.265625 13.769531 -26.878906 12.875 -26.109375 C 11.988281 -25.347656 11.546875 -24.238281 11.546875 -22.78125 L 11.546875 -22.046875 C 11.546875 -20.597656 11.988281 -19.488281 12.875 -18.71875 C 13.769531 -17.957031 15.128906 -17.578125 16.953125 -17.578125 Z M 16.953125 -17.578125 "/></g></g></g><g fill="#004aad" fill-opacity="1"><g transform="translate(998.848841, 290.974155)"><g><path d="M 8.875 -36.078125 C 7.007812 -36.078125 5.65625 -36.5 4.8125 -37.34375 C 3.96875 -38.195312 3.546875 -39.285156 3.546875 -40.609375 L 3.546875 -41.96875 C 3.546875 -43.300781 3.96875 -44.390625 4.8125 -45.234375 C 5.65625 -46.085938 7.007812 -46.515625 8.875 -46.515625 C 10.738281 -46.515625 12.09375 -46.085938 12.9375 -45.234375 C 13.789062 -44.390625 14.21875 -43.300781 14.21875 -41.96875 L 14.21875 -40.609375 C 14.21875 -39.285156 13.789062 -38.195312 12.9375 -37.34375 C 12.09375 -36.5 10.738281 -36.078125 8.875 -36.078125 Z M 4.28125 -32.59375 L 13.46875 -32.59375 L 13.46875 0 L 4.28125 0 Z M 4.28125 -32.59375 "/></g></g></g><g fill="#004aad" fill-opacity="1"><g transform="translate(1016.605301, 290.974155)"><g><path d="M 4.28125 0 L 4.28125 -32.59375 L 13.46875 -32.59375 L 13.46875 -27.078125 L 13.84375 -27.078125 C 14.425781 -28.773438 15.441406 -30.242188 16.890625 -31.484375 C 18.335938 -32.722656 20.34375 -33.34375 22.90625 -33.34375 C 26.257812 -33.34375 28.796875 -32.222656 30.515625 -29.984375 C 32.234375 -27.753906 33.09375 -24.566406 33.09375 -20.421875 L 33.09375 0 L 23.90625 0 L 23.90625 -19.6875 C 23.90625 -21.789062 23.570312 -23.347656 22.90625 -24.359375 C 22.25 -25.378906 21.070312 -25.890625 19.375 -25.890625 C 18.625 -25.890625 17.894531 -25.796875 17.1875 -25.609375 C 16.488281 -25.421875 15.859375 -25.117188 15.296875 -24.703125 C 14.742188 -24.296875 14.300781 -23.789062 13.96875 -23.1875 C 13.632812 -22.59375 13.46875 -21.898438 13.46875 -21.109375 L 13.46875 0 Z M 4.28125 0 "/></g></g></g><g fill="#004aad" fill-opacity="1"><g transform="translate(1053.608295, 290.974155)"><g><path d="M 34.46875 2.359375 C 34.46875 4.097656 34.164062 5.628906 33.5625 6.953125 C 32.957031 8.273438 31.972656 9.398438 30.609375 10.328125 C 29.242188 11.265625 27.429688 11.96875 25.171875 12.4375 C 22.921875 12.914062 20.140625 13.15625 16.828125 13.15625 C 14.015625 13.15625 11.625 12.976562 9.65625 12.625 C 7.6875 12.28125 6.09375 11.785156 4.875 11.140625 C 3.65625 10.503906 2.765625 9.71875 2.203125 8.78125 C 1.640625 7.851562 1.359375 6.789062 1.359375 5.59375 C 1.359375 3.769531 1.894531 2.335938 2.96875 1.296875 C 4.050781 0.265625 5.546875 -0.375 7.453125 -0.625 L 7.453125 -1.296875 C 5.878906 -1.585938 4.695312 -2.257812 3.90625 -3.3125 C 3.125 -4.375 2.734375 -5.609375 2.734375 -7.015625 C 2.734375 -7.890625 2.90625 -8.644531 3.25 -9.28125 C 3.601562 -9.925781 4.0625 -10.484375 4.625 -10.953125 C 5.1875 -11.429688 5.835938 -11.816406 6.578125 -12.109375 C 7.328125 -12.398438 8.070312 -12.628906 8.8125 -12.796875 L 8.8125 -13.046875 C 6.832031 -13.953125 5.363281 -15.203125 4.40625 -16.796875 C 3.457031 -18.390625 2.984375 -20.242188 2.984375 -22.359375 C 2.984375 -25.671875 4.128906 -28.328125 6.421875 -30.328125 C 8.722656 -32.335938 12.234375 -33.34375 16.953125 -33.34375 C 19.109375 -33.34375 20.953125 -33.132812 22.484375 -32.71875 L 22.484375 -33.96875 C 22.484375 -35.707031 22.90625 -36.957031 23.75 -37.71875 C 24.601562 -38.488281 25.816406 -38.875 27.390625 -38.875 L 32.53125 -38.875 L 32.53125 -32.046875 L 25.328125 -32.046875 L 25.328125 -31.671875 C 27.234375 -30.753906 28.640625 -29.5 29.546875 -27.90625 C 30.460938 -26.3125 30.921875 -24.460938 30.921875 -22.359375 C 30.921875 -19.085938 29.769531 -16.46875 27.46875 -14.5 C 25.175781 -12.53125 21.671875 -11.546875 16.953125 -11.546875 C 14.835938 -11.546875 12.910156 -11.773438 11.171875 -12.234375 C 10.222656 -11.609375 9.75 -10.738281 9.75 -9.625 C 9.75 -8.832031 10.046875 -8.21875 10.640625 -7.78125 C 11.242188 -7.351562 12.25 -7.140625 13.65625 -7.140625 L 23.09375 -7.140625 C 27.070312 -7.140625 29.960938 -6.3125 31.765625 -4.65625 C 33.566406 -3 34.46875 -0.660156 34.46875 2.359375 Z M 25.828125 3.59375 C 25.828125 2.644531 25.453125 1.921875 24.703125 1.421875 C 23.960938 0.929688 22.660156 0.6875 20.796875 0.6875 L 9.625 0.6875 C 9.207031 1.09375 8.90625 1.554688 8.71875 2.078125 C 8.53125 2.597656 8.4375 3.101562 8.4375 3.59375 C 8.4375 4.800781 8.953125 5.679688 9.984375 6.234375 C 11.023438 6.796875 12.789062 7.078125 15.28125 7.078125 L 19 7.078125 C 21.476562 7.078125 23.234375 6.796875 24.265625 6.234375 C 25.304688 5.679688 25.828125 4.800781 25.828125 3.59375 Z M 16.953125 -17.578125 C 18.773438 -17.578125 20.128906 -17.957031 21.015625 -18.71875 C 21.910156 -19.488281 22.359375 -20.597656 22.359375 -22.046875 L 22.359375 -22.78125 C 22.359375 -24.238281 21.910156 -25.347656 21.015625 -26.109375 C 20.128906 -26.878906 18.773438 -27.265625 16.953125 -27.265625 C 15.128906 -27.265625 13.769531 -26.878906 12.875 -26.109375 C 11.988281 -25.347656 11.546875 -24.238281 11.546875 -22.78125 L 11.546875 -22.046875 C 11.546875 -20.597656 11.988281 -19.488281 12.875 -18.71875 C 13.769531 -17.957031 15.128906 -17.578125 16.953125 -17.578125 Z M 16.953125 -17.578125 "/></g></g></g><g fill="#004aad" fill-opacity="1"><g transform="translate(1087.879527, 290.974155)"><g/></g></g><g fill="#004aad" fill-opacity="1"><g transform="translate(1102.531717, 290.974155)"><g><path d="M 4.78125 -43.34375 L 21.109375 -43.34375 C 23.960938 -43.34375 26.566406 -42.882812 28.921875 -41.96875 C 31.285156 -41.0625 33.296875 -39.707031 34.953125 -37.90625 C 36.609375 -36.101562 37.890625 -33.847656 38.796875 -31.140625 C 39.710938 -28.429688 40.171875 -25.273438 40.171875 -21.671875 C 40.171875 -18.066406 39.710938 -14.910156 38.796875 -12.203125 C 37.890625 -9.492188 36.609375 -7.238281 34.953125 -5.4375 C 33.296875 -3.632812 31.285156 -2.273438 28.921875 -1.359375 C 26.566406 -0.453125 23.960938 0 21.109375 0 L 4.78125 0 Z M 21.109375 -8.375 C 23.921875 -8.375 26.132812 -9.160156 27.75 -10.734375 C 29.363281 -12.316406 30.171875 -14.84375 30.171875 -18.3125 L 30.171875 -25.03125 C 30.171875 -28.5 29.363281 -31.019531 27.75 -32.59375 C 26.132812 -34.164062 23.921875 -34.953125 21.109375 -34.953125 L 14.21875 -34.953125 L 14.21875 -8.375 Z M 21.109375 -8.375 "/></g></g></g><g fill="#004aad" fill-opacity="1"><g transform="translate(1145.805348, 290.974155)"><g><path d="M 17.890625 0.75 C 15.398438 0.75 13.179688 0.347656 11.234375 -0.453125 C 9.296875 -1.265625 7.648438 -2.40625 6.296875 -3.875 C 4.953125 -5.34375 3.9375 -7.132812 3.25 -9.25 C 2.570312 -11.363281 2.234375 -13.722656 2.234375 -16.328125 C 2.234375 -18.898438 2.5625 -21.226562 3.21875 -23.3125 C 3.882812 -25.40625 4.867188 -27.195312 6.171875 -28.6875 C 7.484375 -30.175781 9.085938 -31.320312 10.984375 -32.125 C 12.890625 -32.9375 15.066406 -33.34375 17.515625 -33.34375 C 20.203125 -33.34375 22.507812 -32.882812 24.4375 -31.96875 C 26.363281 -31.0625 27.9375 -29.84375 29.15625 -28.3125 C 30.375 -26.78125 31.257812 -25.007812 31.8125 -23 C 32.375 -21 32.65625 -18.898438 32.65625 -16.703125 L 32.65625 -13.96875 L 11.734375 -13.96875 L 11.734375 -13.46875 C 11.734375 -11.320312 12.3125 -9.613281 13.46875 -8.34375 C 14.632812 -7.082031 16.457031 -6.453125 18.9375 -6.453125 C 20.84375 -6.453125 22.394531 -6.832031 23.59375 -7.59375 C 24.789062 -8.363281 25.910156 -9.289062 26.953125 -10.375 L 31.546875 -4.65625 C 30.097656 -2.957031 28.203125 -1.628906 25.859375 -0.671875 C 23.523438 0.273438 20.867188 0.75 17.890625 0.75 Z M 17.703125 -26.578125 C 15.835938 -26.578125 14.375 -25.960938 13.3125 -24.734375 C 12.257812 -23.515625 11.734375 -21.894531 11.734375 -19.875 L 11.734375 -19.375 L 23.15625 -19.375 L 23.15625 -19.9375 C 23.15625 -21.914062 22.707031 -23.515625 21.8125 -24.734375 C 20.925781 -25.960938 19.554688 -26.578125 17.703125 -26.578125 Z M 17.703125 -26.578125 "/></g></g></g><g fill="#004aad" fill-opacity="1"><g transform="translate(1180.697424, 290.974155)"><g><path d="M 4.28125 -32.59375 L 13.46875 -32.59375 L 13.46875 -27.140625 L 13.78125 -27.140625 C 14.238281 -28.953125 15.285156 -30.4375 16.921875 -31.59375 C 18.554688 -32.757812 20.429688 -33.34375 22.546875 -33.34375 C 26.679688 -33.34375 29.800781 -31.894531 31.90625 -29 C 34.019531 -26.101562 35.078125 -21.878906 35.078125 -16.328125 C 35.078125 -10.785156 34.019531 -6.550781 31.90625 -3.625 C 29.800781 -0.707031 26.679688 0.75 22.546875 0.75 C 21.460938 0.75 20.441406 0.59375 19.484375 0.28125 C 18.535156 -0.03125 17.675781 -0.460938 16.90625 -1.015625 C 16.144531 -1.578125 15.492188 -2.238281 14.953125 -3 C 14.421875 -3.769531 14.03125 -4.59375 13.78125 -5.46875 L 13.46875 -5.46875 L 13.46875 12.421875 L 4.28125 12.421875 Z M 19.5 -6.703125 C 21.238281 -6.703125 22.675781 -7.3125 23.8125 -8.53125 C 24.945312 -9.757812 25.515625 -11.40625 25.515625 -13.46875 L 25.515625 -19.125 C 25.515625 -21.195312 24.945312 -22.84375 23.8125 -24.0625 C 22.675781 -25.28125 21.238281 -25.890625 19.5 -25.890625 C 17.757812 -25.890625 16.316406 -25.460938 15.171875 -24.609375 C 14.035156 -23.765625 13.46875 -22.597656 13.46875 -21.109375 L 13.46875 -11.484375 C 13.46875 -9.992188 14.035156 -8.820312 15.171875 -7.96875 C 16.316406 -7.125 17.757812 -6.703125 19.5 -6.703125 Z M 19.5 -6.703125 "/></g></g></g><g fill="#004aad" fill-opacity="1"><g transform="translate(1218.445456, 290.974155)"><g><path d="M 28.375 0 C 26.71875 0 25.34375 -0.515625 24.25 -1.546875 C 23.15625 -2.585938 22.460938 -3.976562 22.171875 -5.71875 L 21.796875 -5.71875 C 21.296875 -3.601562 20.195312 -1.992188 18.5 -0.890625 C 16.800781 0.203125 14.710938 0.75 12.234375 0.75 C 8.960938 0.75 6.457031 -0.117188 4.71875 -1.859375 C 2.976562 -3.597656 2.109375 -5.894531 2.109375 -8.75 C 2.109375 -12.1875 3.359375 -14.742188 5.859375 -16.421875 C 8.367188 -18.097656 11.773438 -18.9375 16.078125 -18.9375 L 21.234375 -18.9375 L 21.234375 -20.984375 C 21.234375 -22.554688 20.816406 -23.804688 19.984375 -24.734375 C 19.160156 -25.671875 17.773438 -26.140625 15.828125 -26.140625 C 14.015625 -26.140625 12.566406 -25.742188 11.484375 -24.953125 C 10.410156 -24.171875 9.519531 -23.285156 8.8125 -22.296875 L 3.359375 -27.140625 C 4.679688 -29.078125 6.34375 -30.59375 8.34375 -31.6875 C 10.351562 -32.789062 13.078125 -33.34375 16.515625 -33.34375 C 21.148438 -33.34375 24.625 -32.328125 26.9375 -30.296875 C 29.257812 -28.273438 30.421875 -25.316406 30.421875 -21.421875 L 30.421875 -7.140625 L 33.46875 -7.140625 L 33.46875 0 Z M 15.640625 -5.65625 C 17.171875 -5.65625 18.484375 -5.984375 19.578125 -6.640625 C 20.679688 -7.304688 21.234375 -8.382812 21.234375 -9.875 L 21.234375 -13.71875 L 16.765625 -13.71875 C 13.160156 -13.71875 11.359375 -12.5 11.359375 -10.0625 L 11.359375 -9.125 C 11.359375 -7.925781 11.726562 -7.046875 12.46875 -6.484375 C 13.21875 -5.929688 14.273438 -5.65625 15.640625 -5.65625 Z M 15.640625 -5.65625 "/></g></g></g><g fill="#004aad" fill-opacity="1"><g transform="translate(1253.772158, 290.974155)"><g><path d="M 4.28125 0 L 4.28125 -32.59375 L 13.46875 -32.59375 L 13.46875 -25.515625 L 13.78125 -25.515625 C 13.945312 -26.429688 14.238281 -27.3125 14.65625 -28.15625 C 15.070312 -29.007812 15.617188 -29.765625 16.296875 -30.421875 C 16.984375 -31.085938 17.800781 -31.613281 18.75 -32 C 19.707031 -32.394531 20.828125 -32.59375 22.109375 -32.59375 L 23.71875 -32.59375 L 23.71875 -24.03125 L 21.421875 -24.03125 C 18.734375 -24.03125 16.734375 -23.675781 15.421875 -22.96875 C 14.117188 -22.269531 13.46875 -20.96875 13.46875 -19.0625 L 13.46875 0 Z M 4.28125 0 "/></g></g></g><g fill="#004aad" fill-opacity="1"><g transform="translate(1278.854701, 290.974155)"><g><path d="M 15.703125 0 C 12.515625 0 10.101562 -0.804688 8.46875 -2.421875 C 6.832031 -4.035156 6.015625 -6.394531 6.015625 -9.5 L 6.015625 -25.453125 L 1.421875 -25.453125 L 1.421875 -32.59375 L 3.71875 -32.59375 C 4.96875 -32.59375 5.816406 -32.894531 6.265625 -33.5 C 6.722656 -34.101562 6.953125 -34.960938 6.953125 -36.078125 L 6.953125 -41.421875 L 15.21875 -41.421875 L 15.21875 -32.59375 L 21.671875 -32.59375 L 21.671875 -25.453125 L 15.21875 -25.453125 L 15.21875 -7.140625 L 21.171875 -7.140625 L 21.171875 0 Z M 15.703125 0 "/></g></g></g><g fill="#004aad" fill-opacity="1"><g transform="translate(1302.633459, 290.974155)"><g><path d="M 4.28125 0 L 4.28125 -32.59375 L 13.46875 -32.59375 L 13.46875 -27.078125 L 13.84375 -27.078125 C 14.425781 -28.816406 15.421875 -30.296875 16.828125 -31.515625 C 18.234375 -32.734375 20.160156 -33.34375 22.609375 -33.34375 C 24.835938 -33.34375 26.738281 -32.78125 28.3125 -31.65625 C 29.882812 -30.539062 31.023438 -28.910156 31.734375 -26.765625 L 31.921875 -26.765625 C 32.203125 -27.671875 32.644531 -28.523438 33.25 -29.328125 C 33.851562 -30.140625 34.585938 -30.832031 35.453125 -31.40625 C 36.328125 -31.988281 37.300781 -32.457031 38.375 -32.8125 C 39.445312 -33.164062 40.601562 -33.34375 41.84375 -33.34375 C 44.988281 -33.34375 47.398438 -32.222656 49.078125 -29.984375 C 50.753906 -27.753906 51.59375 -24.566406 51.59375 -20.421875 L 51.59375 0 L 42.40625 0 L 42.40625 -19.6875 C 42.40625 -23.820312 40.914062 -25.890625 37.9375 -25.890625 C 36.570312 -25.890625 35.328125 -25.492188 34.203125 -24.703125 C 33.085938 -23.921875 32.53125 -22.722656 32.53125 -21.109375 L 32.53125 0 L 23.34375 0 L 23.34375 -19.6875 C 23.34375 -23.820312 21.851562 -25.890625 18.875 -25.890625 C 18.21875 -25.890625 17.566406 -25.796875 16.921875 -25.609375 C 16.273438 -25.421875 15.691406 -25.117188 15.171875 -24.703125 C 14.660156 -24.296875 14.25 -23.789062 13.9375 -23.1875 C 13.625 -22.59375 13.46875 -21.898438 13.46875 -21.109375 L 13.46875 0 Z M 4.28125 0 "/></g></g></g><g fill="#004aad" fill-opacity="1"><g transform="translate(1358.137927, 290.974155)"><g><path d="M 17.890625 0.75 C 15.398438 0.75 13.179688 0.347656 11.234375 -0.453125 C 9.296875 -1.265625 7.648438 -2.40625 6.296875 -3.875 C 4.953125 -5.34375 3.9375 -7.132812 3.25 -9.25 C 2.570312 -11.363281 2.234375 -13.722656 2.234375 -16.328125 C 2.234375 -18.898438 2.5625 -21.226562 3.21875 -23.3125 C 3.882812 -25.40625 4.867188 -27.195312 6.171875 -28.6875 C 7.484375 -30.175781 9.085938 -31.320312 10.984375 -32.125 C 12.890625 -32.9375 15.066406 -33.34375 17.515625 -33.34375 C 20.203125 -33.34375 22.507812 -32.882812 24.4375 -31.96875 C 26.363281 -31.0625 27.9375 -29.84375 29.15625 -28.3125 C 30.375 -26.78125 31.257812 -25.007812 31.8125 -23 C 32.375 -21 32.65625 -18.898438 32.65625 -16.703125 L 32.65625 -13.96875 L 11.734375 -13.96875 L 11.734375 -13.46875 C 11.734375 -11.320312 12.3125 -9.613281 13.46875 -8.34375 C 14.632812 -7.082031 16.457031 -6.453125 18.9375 -6.453125 C 20.84375 -6.453125 22.394531 -6.832031 23.59375 -7.59375 C 24.789062 -8.363281 25.910156 -9.289062 26.953125 -10.375 L 31.546875 -4.65625 C 30.097656 -2.957031 28.203125 -1.628906 25.859375 -0.671875 C 23.523438 0.273438 20.867188 0.75 17.890625 0.75 Z M 17.703125 -26.578125 C 15.835938 -26.578125 14.375 -25.960938 13.3125 -24.734375 C 12.257812 -23.515625 11.734375 -21.894531 11.734375 -19.875 L 11.734375 -19.375 L 23.15625 -19.375 L 23.15625 -19.9375 C 23.15625 -21.914062 22.707031 -23.515625 21.8125 -24.734375 C 20.925781 -25.960938 19.554688 -26.578125 17.703125 -26.578125 Z M 17.703125 -26.578125 "/></g></g></g><g fill="#004aad" fill-opacity="1"><g transform="translate(1393.030027, 290.974155)"><g><path d="M 4.28125 0 L 4.28125 -32.59375 L 13.46875 -32.59375 L 13.46875 -27.078125 L 13.84375 -27.078125 C 14.425781 -28.773438 15.441406 -30.242188 16.890625 -31.484375 C 18.335938 -32.722656 20.34375 -33.34375 22.90625 -33.34375 C 26.257812 -33.34375 28.796875 -32.222656 30.515625 -29.984375 C 32.234375 -27.753906 33.09375 -24.566406 33.09375 -20.421875 L 33.09375 0 L 23.90625 0 L 23.90625 -19.6875 C 23.90625 -21.789062 23.570312 -23.347656 22.90625 -24.359375 C 22.25 -25.378906 21.070312 -25.890625 19.375 -25.890625 C 18.625 -25.890625 17.894531 -25.796875 17.1875 -25.609375 C 16.488281 -25.421875 15.859375 -25.117188 15.296875 -24.703125 C 14.742188 -24.296875 14.300781 -23.789062 13.96875 -23.1875 C 13.632812 -22.59375 13.46875 -21.898438 13.46875 -21.109375 L 13.46875 0 Z M 4.28125 0 "/></g></g></g><g fill="#004aad" fill-opacity="1"><g transform="translate(1430.033022, 290.974155)"><g><path d="M 15.703125 0 C 12.515625 0 10.101562 -0.804688 8.46875 -2.421875 C 6.832031 -4.035156 6.015625 -6.394531 6.015625 -9.5 L 6.015625 -25.453125 L 1.421875 -25.453125 L 1.421875 -32.59375 L 3.71875 -32.59375 C 4.96875 -32.59375 5.816406 -32.894531 6.265625 -33.5 C 6.722656 -34.101562 6.953125 -34.960938 6.953125 -36.078125 L 6.953125 -41.421875 L 15.21875 -41.421875 L 15.21875 -32.59375 L 21.671875 -32.59375 L 21.671875 -25.453125 L 15.21875 -25.453125 L 15.21875 -7.140625 L 21.171875 -7.140625 L 21.171875 0 Z M 15.703125 0 "/></g></g></g><g fill="#004aad" fill-opacity="1"><g transform="translate(1453.81178, 290.974155)"><g><path d="M 15.34375 0.75 C 12.195312 0.75 9.546875 0.242188 7.390625 -0.765625 C 5.234375 -1.785156 3.304688 -3.226562 1.609375 -5.09375 L 7.015625 -10.5625 C 8.171875 -9.269531 9.453125 -8.25 10.859375 -7.5 C 12.273438 -6.757812 13.867188 -6.390625 15.640625 -6.390625 C 17.460938 -6.390625 18.722656 -6.671875 19.421875 -7.234375 C 20.128906 -7.796875 20.484375 -8.550781 20.484375 -9.5 C 20.484375 -11.03125 19.390625 -11.941406 17.203125 -12.234375 L 13.65625 -12.671875 C 6.332031 -13.578125 2.671875 -16.925781 2.671875 -22.71875 C 2.671875 -24.289062 2.96875 -25.726562 3.5625 -27.03125 C 4.164062 -28.34375 5.015625 -29.460938 6.109375 -30.390625 C 7.210938 -31.328125 8.539062 -32.050781 10.09375 -32.5625 C 11.644531 -33.082031 13.394531 -33.34375 15.34375 -33.34375 C 17.039062 -33.34375 18.539062 -33.226562 19.84375 -33 C 21.144531 -32.769531 22.300781 -32.4375 23.3125 -32 C 24.332031 -31.570312 25.265625 -31.035156 26.109375 -30.390625 C 26.960938 -29.753906 27.800781 -29.039062 28.625 -28.25 L 23.34375 -22.84375 C 22.3125 -23.882812 21.144531 -24.703125 19.84375 -25.296875 C 18.539062 -25.898438 17.203125 -26.203125 15.828125 -26.203125 C 14.253906 -26.203125 13.132812 -25.953125 12.46875 -25.453125 C 11.8125 -24.960938 11.484375 -24.300781 11.484375 -23.46875 C 11.484375 -22.601562 11.722656 -21.929688 12.203125 -21.453125 C 12.679688 -20.972656 13.582031 -20.628906 14.90625 -20.421875 L 18.5625 -19.9375 C 25.726562 -18.976562 29.3125 -15.707031 29.3125 -10.125 C 29.3125 -8.550781 28.976562 -7.097656 28.3125 -5.765625 C 27.65625 -4.441406 26.710938 -3.296875 25.484375 -2.328125 C 24.265625 -1.359375 22.796875 -0.601562 21.078125 -0.0625 C 19.359375 0.476562 17.445312 0.75 15.34375 0.75 Z M 15.34375 0.75 "/></g></g></g><g fill="#004aad" fill-opacity="1"><g transform="translate(1485.10291, 290.974155)"><g><path d="M 9.75 -10.5 C 11.613281 -10.5 12.988281 -10.03125 13.875 -9.09375 C 14.769531 -8.164062 15.21875 -6.976562 15.21875 -5.53125 L 15.21875 -4.28125 C 15.21875 -1.757812 14.601562 0.71875 13.375 3.15625 C 12.15625 5.601562 10.550781 7.59375 8.5625 9.125 L 2.359375 9.125 C 3.804688 7.757812 5.046875 6.40625 6.078125 5.0625 C 7.117188 3.71875 7.90625 2.21875 8.4375 0.5625 C 6.988281 0.3125 5.929688 -0.253906 5.265625 -1.140625 C 4.609375 -2.035156 4.28125 -3.082031 4.28125 -4.28125 L 4.28125 -5.53125 C 4.28125 -6.976562 4.722656 -8.164062 5.609375 -9.09375 C 6.503906 -10.03125 7.882812 -10.5 9.75 -10.5 Z M 9.75 -10.5 "/></g></g></g><g fill="#004aad" fill-opacity="1"><g transform="translate(1504.349444, 290.974155)"><g/></g></g><g fill="#004aad" fill-opacity="1"><g transform="translate(1519.001658, 290.974155)"><g><path d="M 4.78125 -43.34375 L 25.828125 -43.34375 C 29.429688 -43.34375 32.234375 -42.328125 34.234375 -40.296875 C 36.242188 -38.265625 37.25 -35.578125 37.25 -32.234375 C 37.25 -30.578125 37.03125 -29.164062 36.59375 -28 C 36.164062 -26.84375 35.585938 -25.890625 34.859375 -25.140625 C 34.140625 -24.398438 33.289062 -23.851562 32.3125 -23.5 C 31.34375 -23.144531 30.300781 -22.945312 29.1875 -22.90625 L 29.1875 -22.546875 C 30.21875 -22.546875 31.300781 -22.359375 32.4375 -21.984375 C 33.582031 -21.609375 34.628906 -21.015625 35.578125 -20.203125 C 36.535156 -19.398438 37.332031 -18.359375 37.96875 -17.078125 C 38.613281 -15.796875 38.9375 -14.222656 38.9375 -12.359375 C 38.9375 -10.660156 38.65625 -9.054688 38.09375 -7.546875 C 37.53125 -6.035156 36.753906 -4.71875 35.765625 -3.59375 C 34.773438 -2.476562 33.59375 -1.597656 32.21875 -0.953125 C 30.851562 -0.316406 29.363281 0 27.75 0 L 4.78125 0 Z M 14.21875 -7.953125 L 25.078125 -7.953125 C 26.328125 -7.953125 27.3125 -8.289062 28.03125 -8.96875 C 28.757812 -9.65625 29.125 -10.617188 29.125 -11.859375 L 29.125 -13.96875 C 29.125 -15.207031 28.757812 -16.171875 28.03125 -16.859375 C 27.3125 -17.546875 26.328125 -17.890625 25.078125 -17.890625 L 14.21875 -17.890625 Z M 14.21875 -25.578125 L 23.59375 -25.578125 C 24.832031 -25.578125 25.800781 -25.925781 26.5 -26.625 C 27.207031 -27.332031 27.5625 -28.3125 27.5625 -29.5625 L 27.5625 -31.421875 C 27.5625 -32.660156 27.207031 -33.628906 26.5 -34.328125 C 25.800781 -35.035156 24.832031 -35.390625 23.59375 -35.390625 L 14.21875 -35.390625 Z M 14.21875 -25.578125 "/></g></g></g><g fill="#004aad" fill-opacity="1"><g transform="translate(1560.412684, 290.974155)"><g><path d="M 23.53125 -5.46875 L 23.21875 -5.46875 C 22.925781 -4.632812 22.539062 -3.84375 22.0625 -3.09375 C 21.59375 -2.351562 20.984375 -1.691406 20.234375 -1.109375 C 19.492188 -0.535156 18.613281 -0.0820312 17.59375 0.25 C 16.582031 0.582031 15.414062 0.75 14.09375 0.75 C 10.738281 0.75 8.203125 -0.359375 6.484375 -2.578125 C 4.765625 -4.796875 3.90625 -7.972656 3.90625 -12.109375 L 3.90625 -32.59375 L 13.109375 -32.59375 L 13.109375 -12.921875 C 13.109375 -10.929688 13.457031 -9.394531 14.15625 -8.3125 C 14.863281 -7.238281 16.066406 -6.703125 17.765625 -6.703125 C 18.460938 -6.703125 19.160156 -6.804688 19.859375 -7.015625 C 20.566406 -7.222656 21.191406 -7.519531 21.734375 -7.90625 C 22.273438 -8.300781 22.707031 -8.789062 23.03125 -9.375 C 23.363281 -9.957031 23.53125 -10.640625 23.53125 -11.421875 L 23.53125 -32.59375 L 32.71875 -32.59375 L 32.71875 0 L 23.53125 0 Z M 23.53125 -5.46875 "/></g></g></g><g fill="#004aad" fill-opacity="1"><g transform="translate(1597.415726, 290.974155)"><g><path d="M 8.875 -36.078125 C 7.007812 -36.078125 5.65625 -36.5 4.8125 -37.34375 C 3.96875 -38.195312 3.546875 -39.285156 3.546875 -40.609375 L 3.546875 -41.96875 C 3.546875 -43.300781 3.96875 -44.390625 4.8125 -45.234375 C 5.65625 -46.085938 7.007812 -46.515625 8.875 -46.515625 C 10.738281 -46.515625 12.09375 -46.085938 12.9375 -45.234375 C 13.789062 -44.390625 14.21875 -43.300781 14.21875 -41.96875 L 14.21875 -40.609375 C 14.21875 -39.285156 13.789062 -38.195312 12.9375 -37.34375 C 12.09375 -36.5 10.738281 -36.078125 8.875 -36.078125 Z M 4.28125 -32.59375 L 13.46875 -32.59375 L 13.46875 0 L 4.28125 0 Z M 4.28125 -32.59375 "/></g></g></g><g fill="#004aad" fill-opacity="1"><g transform="translate(1615.172138, 290.974155)"><g><path d="M 13.40625 0 C 10.257812 0 7.953125 -0.765625 6.484375 -2.296875 C 5.015625 -3.828125 4.28125 -6.039062 4.28125 -8.9375 L 4.28125 -45.953125 L 13.46875 -45.953125 L 13.46875 -7.140625 L 17.578125 -7.140625 L 17.578125 0 Z M 13.40625 0 "/></g></g></g><g fill="#004aad" fill-opacity="1"><g transform="translate(1633.984093, 290.974155)"><g><path d="M 24.28125 -5.46875 L 23.96875 -5.46875 C 23.71875 -4.59375 23.320312 -3.769531 22.78125 -3 C 22.25 -2.238281 21.597656 -1.578125 20.828125 -1.015625 C 20.066406 -0.460938 19.195312 -0.03125 18.21875 0.28125 C 17.25 0.59375 16.25 0.75 15.21875 0.75 C 11.070312 0.75 7.941406 -0.707031 5.828125 -3.625 C 3.722656 -6.550781 2.671875 -10.785156 2.671875 -16.328125 C 2.671875 -21.878906 3.722656 -26.101562 5.828125 -29 C 7.941406 -31.894531 11.070312 -33.34375 15.21875 -33.34375 C 17.320312 -33.34375 19.191406 -32.757812 20.828125 -31.59375 C 22.460938 -30.4375 23.507812 -28.953125 23.96875 -27.140625 L 24.28125 -27.140625 L 24.28125 -45.953125 L 33.46875 -45.953125 L 33.46875 0 L 24.28125 0 Z M 18.25 -6.703125 C 19.988281 -6.703125 21.425781 -7.125 22.5625 -7.96875 C 23.707031 -8.820312 24.28125 -9.992188 24.28125 -11.484375 L 24.28125 -21.109375 C 24.28125 -22.597656 23.707031 -23.765625 22.5625 -24.609375 C 21.425781 -25.460938 19.988281 -25.890625 18.25 -25.890625 C 16.507812 -25.890625 15.070312 -25.28125 13.9375 -24.0625 C 12.800781 -22.84375 12.234375 -21.195312 12.234375 -19.125 L 12.234375 -13.46875 C 12.234375 -11.40625 12.800781 -9.757812 13.9375 -8.53125 C 15.070312 -7.3125 16.507812 -6.703125 18.25 -6.703125 Z M 18.25 -6.703125 "/></g></g></g><g fill="#004aad" fill-opacity="1"><g transform="translate(1671.732101, 290.974155)"><g><path d="M 8.875 -36.078125 C 7.007812 -36.078125 5.65625 -36.5 4.8125 -37.34375 C 3.96875 -38.195312 3.546875 -39.285156 3.546875 -40.609375 L 3.546875 -41.96875 C 3.546875 -43.300781 3.96875 -44.390625 4.8125 -45.234375 C 5.65625 -46.085938 7.007812 -46.515625 8.875 -46.515625 C 10.738281 -46.515625 12.09375 -46.085938 12.9375 -45.234375 C 13.789062 -44.390625 14.21875 -43.300781 14.21875 -41.96875 L 14.21875 -40.609375 C 14.21875 -39.285156 13.789062 -38.195312 12.9375 -37.34375 C 12.09375 -36.5 10.738281 -36.078125 8.875 -36.078125 Z M 4.28125 -32.59375 L 13.46875 -32.59375 L 13.46875 0 L 4.28125 0 Z M 4.28125 -32.59375 "/></g></g></g><g fill="#004aad" fill-opacity="1"><g transform="translate(1689.488609, 290.974155)"><g><path d="M 4.28125 0 L 4.28125 -32.59375 L 13.46875 -32.59375 L 13.46875 -27.078125 L 13.84375 -27.078125 C 14.425781 -28.773438 15.441406 -30.242188 16.890625 -31.484375 C 18.335938 -32.722656 20.34375 -33.34375 22.90625 -33.34375 C 26.257812 -33.34375 28.796875 -32.222656 30.515625 -29.984375 C 32.234375 -27.753906 33.09375 -24.566406 33.09375 -20.421875 L 33.09375 0 L 23.90625 0 L 23.90625 -19.6875 C 23.90625 -21.789062 23.570312 -23.347656 22.90625 -24.359375 C 22.25 -25.378906 21.070312 -25.890625 19.375 -25.890625 C 18.625 -25.890625 17.894531 -25.796875 17.1875 -25.609375 C 16.488281 -25.421875 15.859375 -25.117188 15.296875 -24.703125 C 14.742188 -24.296875 14.300781 -23.789062 13.96875 -23.1875 C 13.632812 -22.59375 13.46875 -21.898438 13.46875 -21.109375 L 13.46875 0 Z M 4.28125 0 "/></g></g></g><g fill="#004aad" fill-opacity="1"><g transform="translate(1726.491555, 290.974155)"><g><path d="M 34.46875 2.359375 C 34.46875 4.097656 34.164062 5.628906 33.5625 6.953125 C 32.957031 8.273438 31.972656 9.398438 30.609375 10.328125 C 29.242188 11.265625 27.429688 11.96875 25.171875 12.4375 C 22.921875 12.914062 20.140625 13.15625 16.828125 13.15625 C 14.015625 13.15625 11.625 12.976562 9.65625 12.625 C 7.6875 12.28125 6.09375 11.785156 4.875 11.140625 C 3.65625 10.503906 2.765625 9.71875 2.203125 8.78125 C 1.640625 7.851562 1.359375 6.789062 1.359375 5.59375 C 1.359375 3.769531 1.894531 2.335938 2.96875 1.296875 C 4.050781 0.265625 5.546875 -0.375 7.453125 -0.625 L 7.453125 -1.296875 C 5.878906 -1.585938 4.695312 -2.257812 3.90625 -3.3125 C 3.125 -4.375 2.734375 -5.609375 2.734375 -7.015625 C 2.734375 -7.890625 2.90625 -8.644531 3.25 -9.28125 C 3.601562 -9.925781 4.0625 -10.484375 4.625 -10.953125 C 5.1875 -11.429688 5.835938 -11.816406 6.578125 -12.109375 C 7.328125 -12.398438 8.070312 -12.628906 8.8125 -12.796875 L 8.8125 -13.046875 C 6.832031 -13.953125 5.363281 -15.203125 4.40625 -16.796875 C 3.457031 -18.390625 2.984375 -20.242188 2.984375 -22.359375 C 2.984375 -25.671875 4.128906 -28.328125 6.421875 -30.328125 C 8.722656 -32.335938 12.234375 -33.34375 16.953125 -33.34375 C 19.109375 -33.34375 20.953125 -33.132812 22.484375 -32.71875 L 22.484375 -33.96875 C 22.484375 -35.707031 22.90625 -36.957031 23.75 -37.71875 C 24.601562 -38.488281 25.816406 -38.875 27.390625 -38.875 L 32.53125 -38.875 L 32.53125 -32.046875 L 25.328125 -32.046875 L 25.328125 -31.671875 C 27.234375 -30.753906 28.640625 -29.5 29.546875 -27.90625 C 30.460938 -26.3125 30.921875 -24.460938 30.921875 -22.359375 C 30.921875 -19.085938 29.769531 -16.46875 27.46875 -14.5 C 25.175781 -12.53125 21.671875 -11.546875 16.953125 -11.546875 C 14.835938 -11.546875 12.910156 -11.773438 11.171875 -12.234375 C 10.222656 -11.609375 9.75 -10.738281 9.75 -9.625 C 9.75 -8.832031 10.046875 -8.21875 10.640625 -7.78125 C 11.242188 -7.351562 12.25 -7.140625 13.65625 -7.140625 L 23.09375 -7.140625 C 27.070312 -7.140625 29.960938 -6.3125 31.765625 -4.65625 C 33.566406 -3 34.46875 -0.660156 34.46875 2.359375 Z M 25.828125 3.59375 C 25.828125 2.644531 25.453125 1.921875 24.703125 1.421875 C 23.960938 0.929688 22.660156 0.6875 20.796875 0.6875 L 9.625 0.6875 C 9.207031 1.09375 8.90625 1.554688 8.71875 2.078125 C 8.53125 2.597656 8.4375 3.101562 8.4375 3.59375 C 8.4375 4.800781 8.953125 5.679688 9.984375 6.234375 C 11.023438 6.796875 12.789062 7.078125 15.28125 7.078125 L 19 7.078125 C 21.476562 7.078125 23.234375 6.796875 24.265625 6.234375 C 25.304688 5.679688 25.828125 4.800781 25.828125 3.59375 Z M 16.953125 -17.578125 C 18.773438 -17.578125 20.128906 -17.957031 21.015625 -18.71875 C 21.910156 -19.488281 22.359375 -20.597656 22.359375 -22.046875 L 22.359375 -22.78125 C 22.359375 -24.238281 21.910156 -25.347656 21.015625 -26.109375 C 20.128906 -26.878906 18.773438 -27.265625 16.953125 -27.265625 C 15.128906 -27.265625 13.769531 -26.878906 12.875 -26.109375 C 11.988281 -25.347656 11.546875 -24.238281 11.546875 -22.78125 L 11.546875 -22.046875 C 11.546875 -20.597656 11.988281 -19.488281 12.875 -18.71875 C 13.769531 -17.957031 15.128906 -17.578125 16.953125 -17.578125 Z M 16.953125 -17.578125 "/></g></g></g><g fill="#004aad" fill-opacity="1"><g transform="translate(1760.762834, 290.974155)"><g/></g></g><g fill="#004aad" fill-opacity="1"><g transform="translate(1775.415, 290.974155)"><g><path d="M 22.296875 0.75 C 19.359375 0.75 16.707031 0.285156 14.34375 -0.640625 C 11.976562 -1.578125 9.96875 -2.96875 8.3125 -4.8125 C 6.664062 -6.65625 5.382812 -8.953125 4.46875 -11.703125 C 3.5625 -14.453125 3.109375 -17.671875 3.109375 -21.359375 C 3.109375 -25.003906 3.5625 -28.242188 4.46875 -31.078125 C 5.382812 -33.910156 6.664062 -36.289062 8.3125 -38.21875 C 9.96875 -40.144531 11.976562 -41.601562 14.34375 -42.59375 C 16.707031 -43.59375 19.359375 -44.09375 22.296875 -44.09375 C 26.304688 -44.09375 29.613281 -43.273438 32.21875 -41.640625 C 34.832031 -40.003906 36.925781 -37.425781 38.5 -33.90625 L 30.359375 -29.6875 C 29.785156 -31.5 28.882812 -32.953125 27.65625 -34.046875 C 26.4375 -35.148438 24.648438 -35.703125 22.296875 -35.703125 C 19.515625 -35.703125 17.285156 -34.800781 15.609375 -33 C 13.941406 -31.195312 13.109375 -28.578125 13.109375 -25.140625 L 13.109375 -18.1875 C 13.109375 -14.757812 13.941406 -12.144531 15.609375 -10.34375 C 17.285156 -8.539062 19.515625 -7.640625 22.296875 -7.640625 C 24.609375 -7.640625 26.457031 -8.269531 27.84375 -9.53125 C 29.226562 -10.789062 30.253906 -12.3125 30.921875 -14.09375 L 38.625 -9.625 C 37.007812 -6.3125 34.882812 -3.753906 32.25 -1.953125 C 29.625 -0.148438 26.304688 0.75 22.296875 0.75 Z M 22.296875 0.75 "/></g></g></g><g fill="#004aad" fill-opacity="1"><g transform="translate(1815.832674, 290.974155)"><g><path d="M 8.875 -36.078125 C 7.007812 -36.078125 5.65625 -36.5 4.8125 -37.34375 C 3.96875 -38.195312 3.546875 -39.285156 3.546875 -40.609375 L 3.546875 -41.96875 C 3.546875 -43.300781 3.96875 -44.390625 4.8125 -45.234375 C 5.65625 -46.085938 7.007812 -46.515625 8.875 -46.515625 C 10.738281 -46.515625 12.09375 -46.085938 12.9375 -45.234375 C 13.789062 -44.390625 14.21875 -43.300781 14.21875 -41.96875 L 14.21875 -40.609375 C 14.21875 -39.285156 13.789062 -38.195312 12.9375 -37.34375 C 12.09375 -36.5 10.738281 -36.078125 8.875 -36.078125 Z M 4.28125 -32.59375 L 13.46875 -32.59375 L 13.46875 0 L 4.28125 0 Z M 4.28125 -32.59375 "/></g></g></g><g fill="#004aad" fill-opacity="1"><g transform="translate(1833.589182, 290.974155)"><g><path d="M 15.703125 0 C 12.515625 0 10.101562 -0.804688 8.46875 -2.421875 C 6.832031 -4.035156 6.015625 -6.394531 6.015625 -9.5 L 6.015625 -25.453125 L 1.421875 -25.453125 L 1.421875 -32.59375 L 3.71875 -32.59375 C 4.96875 -32.59375 5.816406 -32.894531 6.265625 -33.5 C 6.722656 -34.101562 6.953125 -34.960938 6.953125 -36.078125 L 6.953125 -41.421875 L 15.21875 -41.421875 L 15.21875 -32.59375 L 21.671875 -32.59375 L 21.671875 -25.453125 L 15.21875 -25.453125 L 15.21875 -7.140625 L 21.171875 -7.140625 L 21.171875 0 Z M 15.703125 0 "/></g></g></g><g fill="#004aad" fill-opacity="1"><g transform="translate(1857.367891, 290.974155)"><g><path d="M 8.875 -36.078125 C 7.007812 -36.078125 5.65625 -36.5 4.8125 -37.34375 C 3.96875 -38.195312 3.546875 -39.285156 3.546875 -40.609375 L 3.546875 -41.96875 C 3.546875 -43.300781 3.96875 -44.390625 4.8125 -45.234375 C 5.65625 -46.085938 7.007812 -46.515625 8.875 -46.515625 C 10.738281 -46.515625 12.09375 -46.085938 12.9375 -45.234375 C 13.789062 -44.390625 14.21875 -43.300781 14.21875 -41.96875 L 14.21875 -40.609375 C 14.21875 -39.285156 13.789062 -38.195312 12.9375 -37.34375 C 12.09375 -36.5 10.738281 -36.078125 8.875 -36.078125 Z M 4.28125 -32.59375 L 13.46875 -32.59375 L 13.46875 0 L 4.28125 0 Z M 4.28125 -32.59375 "/></g></g></g><g fill="#004aad" fill-opacity="1"><g transform="translate(1875.124399, 290.974155)"><g><path d="M 17.890625 0.75 C 15.398438 0.75 13.179688 0.347656 11.234375 -0.453125 C 9.296875 -1.265625 7.648438 -2.40625 6.296875 -3.875 C 4.953125 -5.34375 3.9375 -7.132812 3.25 -9.25 C 2.570312 -11.363281 2.234375 -13.722656 2.234375 -16.328125 C 2.234375 -18.898438 2.5625 -21.226562 3.21875 -23.3125 C 3.882812 -25.40625 4.867188 -27.195312 6.171875 -28.6875 C 7.484375 -30.175781 9.085938 -31.320312 10.984375 -32.125 C 12.890625 -32.9375 15.066406 -33.34375 17.515625 -33.34375 C 20.203125 -33.34375 22.507812 -32.882812 24.4375 -31.96875 C 26.363281 -31.0625 27.9375 -29.84375 29.15625 -28.3125 C 30.375 -26.78125 31.257812 -25.007812 31.8125 -23 C 32.375 -21 32.65625 -18.898438 32.65625 -16.703125 L 32.65625 -13.96875 L 11.734375 -13.96875 L 11.734375 -13.46875 C 11.734375 -11.320312 12.3125 -9.613281 13.46875 -8.34375 C 14.632812 -7.082031 16.457031 -6.453125 18.9375 -6.453125 C 20.84375 -6.453125 22.394531 -6.832031 23.59375 -7.59375 C 24.789062 -8.363281 25.910156 -9.289062 26.953125 -10.375 L 31.546875 -4.65625 C 30.097656 -2.957031 28.203125 -1.628906 25.859375 -0.671875 C 23.523438 0.273438 20.867188 0.75 17.890625 0.75 Z M 17.703125 -26.578125 C 15.835938 -26.578125 14.375 -25.960938 13.3125 -24.734375 C 12.257812 -23.515625 11.734375 -21.894531 11.734375 -19.875 L 11.734375 -19.375 L 23.15625 -19.375 L 23.15625 -19.9375 C 23.15625 -21.914062 22.707031 -23.515625 21.8125 -24.734375 C 20.925781 -25.960938 19.554688 -26.578125 17.703125 -26.578125 Z M 17.703125 -26.578125 "/></g></g></g><g fill="#004aad" fill-opacity="1"><g transform="translate(1910.016451, 290.974155)"><g><path d="M 15.34375 0.75 C 12.195312 0.75 9.546875 0.242188 7.390625 -0.765625 C 5.234375 -1.785156 3.304688 -3.226562 1.609375 -5.09375 L 7.015625 -10.5625 C 8.171875 -9.269531 9.453125 -8.25 10.859375 -7.5 C 12.273438 -6.757812 13.867188 -6.390625 15.640625 -6.390625 C 17.460938 -6.390625 18.722656 -6.671875 19.421875 -7.234375 C 20.128906 -7.796875 20.484375 -8.550781 20.484375 -9.5 C 20.484375 -11.03125 19.390625 -11.941406 17.203125 -12.234375 L 13.65625 -12.671875 C 6.332031 -13.578125 2.671875 -16.925781 2.671875 -22.71875 C 2.671875 -24.289062 2.96875 -25.726562 3.5625 -27.03125 C 4.164062 -28.34375 5.015625 -29.460938 6.109375 -30.390625 C 7.210938 -31.328125 8.539062 -32.050781 10.09375 -32.5625 C 11.644531 -33.082031 13.394531 -33.34375 15.34375 -33.34375 C 17.039062 -33.34375 18.539062 -33.226562 19.84375 -33 C 21.144531 -32.769531 22.300781 -32.4375 23.3125 -32 C 24.332031 -31.570312 25.265625 -31.035156 26.109375 -30.390625 C 26.960938 -29.753906 27.800781 -29.039062 28.625 -28.25 L 23.34375 -22.84375 C 22.3125 -23.882812 21.144531 -24.703125 19.84375 -25.296875 C 18.539062 -25.898438 17.203125 -26.203125 15.828125 -26.203125 C 14.253906 -26.203125 13.132812 -25.953125 12.46875 -25.453125 C 11.8125 -24.960938 11.484375 -24.300781 11.484375 -23.46875 C 11.484375 -22.601562 11.722656 -21.929688 12.203125 -21.453125 C 12.679688 -20.972656 13.582031 -20.628906 14.90625 -20.421875 L 18.5625 -19.9375 C 25.726562 -18.976562 29.3125 -15.707031 29.3125 -10.125 C 29.3125 -8.550781 28.976562 -7.097656 28.3125 -5.765625 C 27.65625 -4.441406 26.710938 -3.296875 25.484375 -2.328125 C 24.265625 -1.359375 22.796875 -0.601562 21.078125 -0.0625 C 19.359375 0.476562 17.445312 0.75 15.34375 0.75 Z M 15.34375 0.75 "/></g></g></g><g fill="#004aad" fill-opacity="1"><g transform="translate(411.792948, 204.708603)"><g><path d="M 47.9375 -98.96875 L 47.9375 0 L 11.59375 0 L 11.59375 -159.484375 L 47.9375 -159.484375 L 111.34375 -60.5 L 111.734375 -60.5 L 111.734375 -159.484375 L 148.078125 -159.484375 L 148.078125 0 L 111.734375 0 L 48.328125 -98.96875 Z M 47.9375 -98.96875 "/></g></g></g><g fill="#004aad" fill-opacity="1"><g transform="translate(571.474925, 204.708603)"><g><path d="M 18.359375 -12.265625 C 9.085938 -22.390625 4.453125 -34.796875 4.453125 -49.484375 C 4.453125 -64.179688 9.085938 -76.617188 18.359375 -86.796875 C 27.640625 -96.972656 39.429688 -102.0625 53.734375 -102.0625 C 66.878906 -102.0625 77.707031 -97.941406 86.21875 -89.703125 L 86.21875 -99.171875 L 120.4375 -99.171875 L 120.4375 0 L 86.609375 0 L 86.609375 -11.21875 L 86.21875 -11.21875 C 77.707031 -1.800781 66.878906 2.90625 53.734375 2.90625 C 39.429688 2.90625 27.640625 -2.148438 18.359375 -12.265625 Z M 47.453125 -66.296875 C 43.003906 -61.921875 40.78125 -56.316406 40.78125 -49.484375 C 40.78125 -42.660156 42.90625 -37.085938 47.15625 -32.765625 C 51.414062 -28.453125 57.023438 -26.296875 63.984375 -26.296875 C 70.679688 -26.296875 76.1875 -28.484375 80.5 -32.859375 C 84.820312 -37.242188 86.984375 -42.785156 86.984375 -49.484375 C 86.984375 -56.316406 84.757812 -61.921875 80.3125 -66.296875 C 75.875 -70.679688 70.429688 -72.875 63.984375 -72.875 C 57.410156 -72.875 51.898438 -70.679688 47.453125 -66.296875 Z M 47.453125 -66.296875 "/></g></g></g><g fill="#004aad" fill-opacity="1"><g transform="translate(703.512206, 204.708603)"><g><path d="M 7.15625 24.359375 L 35.1875 10.625 C 40.34375 19.132812 49.296875 23.390625 62.046875 23.390625 C 67.984375 23.390625 73.492188 21.488281 78.578125 17.6875 C 83.671875 13.882812 86.21875 8.050781 86.21875 0.1875 L 86.21875 -7.15625 C 80.15625 -0.445312 69.328125 2.90625 53.734375 2.90625 C 39.429688 2.90625 27.640625 -2.148438 18.359375 -12.265625 C 9.085938 -22.390625 4.453125 -34.796875 4.453125 -49.484375 C 4.453125 -64.179688 9.085938 -76.617188 18.359375 -86.796875 C 27.640625 -96.972656 39.429688 -102.0625 53.734375 -102.0625 C 66.492188 -102.0625 77.128906 -98.132812 85.640625 -90.28125 L 86.21875 -90.28125 L 86.21875 -99.171875 L 120.4375 -99.171875 L 120.4375 2.703125 C 120.4375 18.816406 115.085938 31.253906 104.390625 40.015625 C 93.691406 48.773438 79.578125 53.15625 62.046875 53.15625 C 33.703125 53.15625 15.40625 43.554688 7.15625 24.359375 Z M 47.453125 -66.296875 C 43.003906 -61.921875 40.78125 -56.316406 40.78125 -49.484375 C 40.78125 -42.660156 42.90625 -37.085938 47.15625 -32.765625 C 51.414062 -28.453125 57.023438 -26.296875 63.984375 -26.296875 C 70.679688 -26.296875 76.1875 -28.484375 80.5 -32.859375 C 84.820312 -37.242188 86.984375 -42.785156 86.984375 -49.484375 C 86.984375 -56.316406 84.757812 -61.921875 80.3125 -66.296875 C 75.875 -70.679688 70.429688 -72.875 63.984375 -72.875 C 57.410156 -72.875 51.898438 -70.679688 47.453125 -66.296875 Z M 47.453125 -66.296875 "/></g></g></g><g fill="#004aad" fill-opacity="1"><g transform="translate(835.549487, 204.708603)"><g><path d="M 18.359375 -12.265625 C 9.085938 -22.390625 4.453125 -34.796875 4.453125 -49.484375 C 4.453125 -64.179688 9.085938 -76.617188 18.359375 -86.796875 C 27.640625 -96.972656 39.429688 -102.0625 53.734375 -102.0625 C 66.878906 -102.0625 77.707031 -97.941406 86.21875 -89.703125 L 86.21875 -99.171875 L 120.4375 -99.171875 L 120.4375 0 L 86.609375 0 L 86.609375 -11.21875 L 86.21875 -11.21875 C 77.707031 -1.800781 66.878906 2.90625 53.734375 2.90625 C 39.429688 2.90625 27.640625 -2.148438 18.359375 -12.265625 Z M 47.453125 -66.296875 C 43.003906 -61.921875 40.78125 -56.316406 40.78125 -49.484375 C 40.78125 -42.660156 42.90625 -37.085938 47.15625 -32.765625 C 51.414062 -28.453125 57.023438 -26.296875 63.984375 -26.296875 C 70.679688 -26.296875 76.1875 -28.484375 80.5 -32.859375 C 84.820312 -37.242188 86.984375 -42.785156 86.984375 -49.484375 C 86.984375 -56.316406 84.757812 -61.921875 80.3125 -66.296875 C 75.875 -70.679688 70.429688 -72.875 63.984375 -72.875 C 57.410156 -72.875 51.898438 -70.679688 47.453125 -66.296875 Z M 47.453125 -66.296875 "/></g></g></g><g fill="#004aad" fill-opacity="1"><g transform="translate(967.586768, 204.708603)"><g><path d="M 11.59375 0 L 11.59375 -99.171875 L 45.8125 -99.171875 L 45.8125 -84.859375 L 46.203125 -84.859375 C 46.460938 -85.378906 46.878906 -86.023438 47.453125 -86.796875 C 48.035156 -87.566406 49.289062 -88.914062 51.21875 -90.84375 C 53.15625 -92.78125 55.21875 -94.519531 57.40625 -96.0625 C 59.601562 -97.613281 62.441406 -99 65.921875 -100.21875 C 69.398438 -101.445312 72.941406 -102.0625 76.546875 -102.0625 C 80.285156 -102.0625 83.957031 -101.546875 87.5625 -100.515625 C 91.175781 -99.484375 93.820312 -98.453125 95.5 -97.421875 L 98.203125 -95.890625 L 83.890625 -66.890625 C 79.640625 -70.492188 73.710938 -72.296875 66.109375 -72.296875 C 61.984375 -72.296875 58.4375 -71.394531 55.46875 -69.59375 C 52.507812 -67.789062 50.414062 -65.597656 49.1875 -63.015625 C 47.96875 -60.441406 47.097656 -58.25 46.578125 -56.4375 C 46.066406 -54.632812 45.8125 -53.21875 45.8125 -52.1875 L 45.8125 0 Z M 11.59375 0 "/></g></g></g><g fill="#004aad" fill-opacity="1"><g transform="translate(1063.859909, 204.708603)"><g><path d="M 61.46875 0 L -5.40625 -159.484375 L 35.5625 -159.484375 L 75.78125 -54.703125 L 115.984375 -159.484375 L 156.96875 -159.484375 L 90.078125 0 Z M 61.46875 0 "/></g></g></g><g fill="#004aad" fill-opacity="1"><g transform="translate(1215.422485, 204.708603)"><g><path d="M 14.875 -154.453125 C 18.875 -158.453125 23.644531 -160.453125 29.1875 -160.453125 C 34.726562 -160.453125 39.492188 -158.453125 43.484375 -154.453125 C 47.484375 -150.460938 49.484375 -145.695312 49.484375 -140.15625 C 49.484375 -134.613281 47.484375 -129.84375 43.484375 -125.84375 C 39.492188 -121.851562 34.726562 -119.859375 29.1875 -119.859375 C 23.644531 -119.859375 18.875 -121.851562 14.875 -125.84375 C 10.882812 -129.84375 8.890625 -134.613281 8.890625 -140.15625 C 8.890625 -145.695312 10.882812 -150.460938 14.875 -154.453125 Z M 11.59375 -99.171875 L 11.59375 0 L 45.8125 0 L 45.8125 -99.171875 Z M 11.59375 -99.171875 "/></g></g></g><g fill="#004aad" fill-opacity="1"><g transform="translate(1273.804969, 204.708603)"><g><path d="M 124.875 -99.171875 L 77.71875 -51.8125 L 129.515625 0 L 85.4375 0 L 45.8125 -39.625 L 45.8125 0 L 11.59375 0 L 11.59375 -166.25 L 45.8125 -166.25 L 45.8125 -64.5625 L 80.421875 -99.171875 Z M 124.875 -99.171875 "/></g></g></g><g fill="#004aad" fill-opacity="1"><g transform="translate(1398.689385, 204.708603)"><g><path d="M 18.359375 -12.265625 C 9.085938 -22.390625 4.453125 -34.796875 4.453125 -49.484375 C 4.453125 -64.179688 9.085938 -76.617188 18.359375 -86.796875 C 27.640625 -96.972656 39.429688 -102.0625 53.734375 -102.0625 C 66.878906 -102.0625 77.707031 -97.941406 86.21875 -89.703125 L 86.21875 -99.171875 L 120.4375 -99.171875 L 120.4375 0 L 86.609375 0 L 86.609375 -11.21875 L 86.21875 -11.21875 C 77.707031 -1.800781 66.878906 2.90625 53.734375 2.90625 C 39.429688 2.90625 27.640625 -2.148438 18.359375 -12.265625 Z M 47.453125 -66.296875 C 43.003906 -61.921875 40.78125 -56.316406 40.78125 -49.484375 C 40.78125 -42.660156 42.90625 -37.085938 47.15625 -32.765625 C 51.414062 -28.453125 57.023438 -26.296875 63.984375 -26.296875 C 70.679688 -26.296875 76.1875 -28.484375 80.5 -32.859375 C 84.820312 -37.242188 86.984375 -42.785156 86.984375 -49.484375 C 86.984375 -56.316406 84.757812 -61.921875 80.3125 -66.296875 C 75.875 -70.679688 70.429688 -72.875 63.984375 -72.875 C 57.410156 -72.875 51.898438 -70.679688 47.453125 -66.296875 Z M 47.453125 -66.296875 "/></g></g></g><g fill="#004aad" fill-opacity="1"><g transform="translate(1530.726715, 204.708603)"><g><path d="M 54.703125 -102.0625 C 60.378906 -102.0625 65.988281 -101.414062 71.53125 -100.125 C 77.070312 -98.84375 81.191406 -97.554688 83.890625 -96.265625 L 87.953125 -94.34375 L 76.75 -71.90625 C 69.007812 -76.03125 61.660156 -78.09375 54.703125 -78.09375 C 50.835938 -78.09375 48.097656 -77.671875 46.484375 -76.828125 C 44.878906 -75.992188 44.078125 -74.421875 44.078125 -72.109375 C 44.078125 -71.585938 44.140625 -71.066406 44.265625 -70.546875 C 44.398438 -70.035156 44.660156 -69.554688 45.046875 -69.109375 C 45.429688 -68.660156 45.785156 -68.273438 46.109375 -67.953125 C 46.429688 -67.628906 46.976562 -67.273438 47.75 -66.890625 C 48.519531 -66.503906 49.128906 -66.210938 49.578125 -66.015625 C 50.035156 -65.816406 50.78125 -65.523438 51.8125 -65.140625 C 52.84375 -64.753906 53.613281 -64.460938 54.125 -64.265625 C 54.644531 -64.078125 55.515625 -63.789062 56.734375 -63.40625 C 57.960938 -63.019531 58.898438 -62.765625 59.546875 -62.640625 C 63.535156 -61.472656 67.007812 -60.179688 69.96875 -58.765625 C 72.9375 -57.347656 76.0625 -55.414062 79.34375 -52.96875 C 82.632812 -50.519531 85.179688 -47.425781 86.984375 -43.6875 C 88.796875 -39.945312 89.703125 -35.695312 89.703125 -30.9375 C 89.703125 -8.375 74.039062 2.90625 42.71875 2.90625 C 35.632812 2.90625 28.898438 1.8125 22.515625 -0.375 C 16.140625 -2.570312 11.535156 -4.765625 8.703125 -6.953125 L 4.453125 -10.4375 L 18.359375 -33.828125 C 19.390625 -32.921875 20.742188 -31.851562 22.421875 -30.625 C 24.097656 -29.40625 27.125 -27.734375 31.5 -25.609375 C 35.882812 -23.484375 39.691406 -22.421875 42.921875 -22.421875 C 50.003906 -22.421875 53.546875 -24.804688 53.546875 -29.578125 C 53.546875 -31.765625 52.644531 -33.46875 50.84375 -34.6875 C 49.039062 -35.914062 45.976562 -37.300781 41.65625 -38.84375 C 37.34375 -40.394531 33.960938 -41.816406 31.515625 -43.109375 C 25.328125 -46.328125 20.425781 -49.96875 16.8125 -54.03125 C 13.207031 -58.09375 11.40625 -63.472656 11.40625 -70.171875 C 11.40625 -80.222656 15.300781 -88.050781 23.09375 -93.65625 C 30.894531 -99.257812 41.429688 -102.0625 54.703125 -102.0625 Z M 54.703125 -102.0625 "/></g></g></g><g clip-path="url(#b38b7bbb8b)"><path fill="#004aad" d="M 385.445312 224.386719 C 381.515625 221.8125 376.808594 220.464844 372.765625 218.339844 C 372.90625 217.972656 373.398438 218.152344 373.710938 218.105469 C 376.515625 218.121094 379.320312 218.144531 382.128906 218.152344 C 382.703125 218.082031 383.695312 218.382812 383.925781 217.675781 C 383.886719 216.582031 384.082031 215.253906 383.789062 214.226562 C 382.898438 213.242188 381.488281 215.132812 381.675781 212.449219 C 381.65625 209.644531 381.632812 206.839844 381.609375 204.027344 C 381.515625 203.449219 381.878906 202.359375 381.066406 202.257812 C 377.210938 202.171875 373.324219 202.015625 369.480469 202.097656 C 368.535156 202.277344 369.089844 206.949219 368.855469 208.03125 C 368.820312 208.867188 368.722656 208.933594 367.917969 208.949219 C 366.761719 208.972656 366.699219 208.910156 366.6875 207.703125 C 366.679688 207.070312 366.703125 206.429688 366.703125 205.792969 C 366.679688 200.917969 366.773438 196.050781 366.679688 191.175781 C 366.707031 190.570312 366.109375 190.511719 365.628906 190.570312 C 364.398438 190.644531 364.402344 190.417969 364.363281 189.335938 C 364.179688 181.191406 364.457031 173.03125 364.058594 164.90625 C 363.375 164.804688 363.015625 165.34375 362.566406 165.675781 C 358.160156 169.125 353.171875 172.238281 349.011719 175.820312 C 348.414062 183.253906 348.890625 190.863281 348.6875 198.351562 C 348.675781 200.628906 348.710938 202.90625 348.710938 205.183594 C 348.625 205.617188 348.792969 206.402344 348.335938 206.574219 C 347.5 206.386719 347.917969 201.058594 347.714844 199.984375 C 347.808594 197.746094 347.378906 198.136719 345.484375 198.128906 C 344.808594 198.136719 344.964844 197.328125 344.941406 196.859375 C 344.992188 192.304688 345.058594 187.75 345.09375 183.199219 C 345.113281 181.023438 345.347656 181.265625 343.152344 181.269531 C 341.144531 181.277344 341.289062 181.433594 341.289062 179.371094 C 341.273438 170.6875 341.359375 162 341.28125 153.320312 C 341.273438 153.148438 341.152344 152.957031 341.03125 152.832031 C 340.992188 152.792969 340.738281 152.902344 340.628906 153 C 337.816406 155.492188 335.046875 158.039062 332.207031 160.5 C 330.78125 161.742188 331.480469 163.9375 331.179688 165.621094 C 331.449219 168.589844 329.1875 166.664062 327.597656 167.5 C 327.3125 169.597656 327.328125 171.710938 327.304688 173.820312 C 327.234375 174.5625 327.582031 175.746094 326.4375 175.609375 C 325.21875 175.636719 324 175.632812 322.785156 175.632812 C 320.847656 175.632812 320.980469 175.792969 320.984375 173.839844 C 321.019531 152.605469 321.082031 131.367188 320.984375 110.132812 C 320.984375 109.167969 320.664062 108.601562 319.855469 108.089844 C 317.308594 106.480469 314.800781 104.800781 312.304688 103.113281 C 304.648438 98.089844 297.242188 92.417969 289.339844 87.898438 C 288.742188 120.160156 289.128906 152.488281 288.925781 184.78125 C 288.917969 186.117188 288.882812 186.121094 287.601562 186.101562 C 286.472656 186.078125 286.445312 186.054688 286.417969 184.9375 C 286.367188 162.0625 286.488281 139.183594 286.363281 116.308594 C 286.34375 115.347656 286.296875 115.308594 285.378906 115.304688 C 282.46875 115.285156 279.550781 115.28125 276.640625 115.269531 C 275.273438 115.265625 275.273438 115.199219 275.273438 116.679688 C 275.253906 121.816406 275.292969 126.953125 275.226562 132.085938 C 275.5625 133.207031 270.777344 132.355469 270.007812 132.542969 C 268.835938 132.296875 269.4375 135.25 269.28125 136.050781 C 269.25 144.15625 269.308594 152.257812 269.230469 160.359375 C 269.214844 160.734375 269.011719 160.9375 268.632812 160.945312 C 265.453125 160.945312 262.277344 160.949219 259.097656 160.960938 C 258.09375 160.964844 258.085938 160.976562 258.03125 162.035156 C 257.824219 173.46875 257.878906 184.910156 257.816406 196.347656 C 257.8125 197.800781 257.773438 197.792969 256.273438 197.800781 C 255.886719 197.800781 255.699219 197.5625 255.679688 197.207031 C 255.484375 166.019531 255.699219 134.824219 255.601562 103.636719 C 255.578125 102.6875 255.507812 102.613281 254.609375 102.625 C 253.445312 102.640625 252.285156 102.71875 251.117188 102.738281 C 248.890625 102.777344 249.085938 102.914062 249.085938 100.6875 C 248.882812 82.9375 249.550781 64.640625 248.949219 47.152344 C 248.761719 47.097656 248.417969 47.421875 248.207031 47.636719 C 246.839844 49.039062 245.460938 50.4375 244.136719 51.878906 C 239.234375 57.222656 234.363281 62.597656 229.445312 67.929688 C 228.710938 68.722656 228.339844 69.53125 228.34375 70.609375 C 228.183594 81.726562 228.359375 92.847656 228.199219 103.964844 C 228.199219 104.964844 226.902344 104.597656 226.230469 104.675781 C 224.167969 104.679688 222.101562 104.679688 220.039062 104.691406 C 218.035156 104.695312 218.308594 104.558594 218.292969 106.347656 C 218.289062 112.332031 218.238281 118.3125 218.128906 124.296875 C 218.105469 125.574219 218.074219 125.589844 216.757812 125.605469 C 214.273438 125.640625 211.78125 125.648438 209.292969 125.667969 C 208.640625 125.695312 208.546875 125.761719 208.535156 126.398438 C 208.398438 137.996094 208.484375 149.589844 208.429688 161.191406 C 208.429688 162.253906 208.425781 163.308594 208.386719 164.371094 C 208.355469 165.21875 208.199219 165.34375 207.320312 165.371094 C 206.648438 165.351562 206.082031 165.410156 206.113281 164.535156 C 206.125 140.761719 206.09375 116.984375 206.042969 93.210938 C 206.027344 71.660156 206.09375 50.105469 206.03125 28.554688 C 206.136719 27.5625 205.238281 27.179688 204.585938 26.667969 C 192.566406 17.957031 180.820312 8.886719 168.753906 0.300781 C 167.25 32.824219 168.730469 67.652344 168.222656 100.933594 C 168.1875 100.933594 168.148438 100.933594 168.113281 100.933594 C 168.066406 134.507812 168.195312 168.085938 168.097656 201.65625 C 168.390625 202.664062 164.511719 201.949219 163.9375 202.097656 C 162.332031 151.316406 163.828125 98.722656 163.34375 47.351562 C 163.273438 46.628906 163.6875 45.4375 162.652344 45.410156 C 158.097656 45.347656 153.542969 45.375 148.988281 45.347656 C 148.617188 45.253906 148.058594 45.390625 147.953125 45.777344 C 147.699219 54.183594 147.964844 62.617188 147.792969 71.03125 C 148.277344 72.066406 140.363281 71.5 139.367188 71.679688 C 137.464844 71.570312 137.738281 72.011719 137.710938 73.644531 C 137.679688 115.535156 137.558594 157.417969 137.585938 199.308594 C 137.585938 200.714844 137.578125 200.714844 136.199219 200.722656 C 134.058594 200.640625 134.050781 201.066406 134.109375 198.734375 C 134.097656 180.363281 134.089844 161.984375 134.089844 143.609375 C 134.089844 138 134.109375 132.382812 134.109375 126.773438 C 134.109375 125.917969 134.023438 125.847656 133.238281 125.804688 C 123.390625 125.75 113.539062 125.710938 103.6875 125.695312 C 103.3125 125.707031 103.089844 125.898438 103.082031 126.273438 C 103.042969 137.074219 103.121094 147.878906 103.117188 158.679688 C 103.117188 160.5 103.230469 160.398438 101.382812 160.40625 C 97.25 160.410156 93.121094 160.417969 88.988281 160.433594 C 88.152344 160.4375 88.085938 160.5 88.066406 161.335938 C 87.636719 177.585938 87.976562 193.851562 87.863281 210.105469 C 87.835938 210.628906 87.683594 210.808594 87.21875 210.820312 C 86.003906 210.84375 84.78125 210.847656 83.566406 210.835938 C 83.054688 210.832031 82.933594 210.710938 82.90625 210.148438 C 82.667969 191.40625 82.9375 172.660156 82.722656 153.914062 C 82.558594 152.953125 83.148438 151.539062 82.0625 151.015625 C 74.230469 146.492188 66.523438 141.722656 58.640625 137.285156 C 58.238281 137.082031 58.019531 137.207031 57.984375 137.621094 C 57.925781 141.113281 57.929688 144.613281 57.914062 148.105469 C 57.886719 160.5 57.941406 172.886719 57.882812 185.28125 C 57.914062 186.253906 56.914062 185.957031 56.273438 186.007812 C 55.109375 186.015625 53.941406 186.015625 52.78125 186.039062 C 51.941406 186.054688 51.929688 186.078125 51.878906 186.964844 C 51.796875 192.996094 51.738281 199.039062 51.675781 205.074219 C 51.65625 207.292969 51.683594 209.523438 51.660156 211.746094 C 51.65625 212.546875 51.488281 212.667969 50.726562 212.648438 C 49.769531 212.730469 49.925781 211.960938 49.917969 211.292969 C 49.949219 200.066406 49.867188 188.839844 49.960938 177.617188 C 49.980469 176.875 49.703125 176.460938 49.0625 176.132812 C 42.820312 172.667969 36.699219 168.96875 30.496094 165.421875 C 29.261719 164.558594 29.277344 165.148438 29.332031 166.53125 C 29.28125 176.011719 29.308594 185.496094 29.226562 194.96875 C 29.265625 196.363281 27.679688 195.6875 26.808594 195.8125 C 24.792969 195.792969 24.996094 195.511719 24.976562 197.507812 C 24.925781 201.957031 24.882812 206.402344 24.820312 210.855469 C 24.882812 214.347656 23.886719 213.011719 20.839844 213.164062 C 20.292969 213.140625 20.140625 212.976562 20.128906 212.351562 C 20.101562 210.871094 20.105469 209.386719 20.089844 207.898438 C 20.078125 207.15625 20.003906 207.070312 19.277344 207.0625 C 15.992188 207.035156 12.707031 207.019531 9.425781 207.007812 C 8.691406 207.007812 8.582031 207.109375 8.554688 207.8125 C 8.496094 209.292969 8.449219 210.777344 8.410156 212.257812 C 8.363281 214.1875 8.472656 214.035156 6.550781 214.007812 C 4.960938 214.15625 0.390625 213.484375 0.703125 214.550781 C 1.046875 217.972656 -0.558594 218.527344 3.734375 218.355469 C 95.453125 219.242188 187.363281 217 279 219.238281 C 297.089844 221.664062 315.105469 224.910156 332.425781 230.785156 C 337.882812 232.644531 343.347656 234.503906 348.644531 236.785156 C 349.769531 237.269531 350.789062 237.339844 351.992188 236.921875 C 354.984375 235.878906 358.039062 235.003906 361.074219 234.066406 C 361.640625 233.890625 362.300781 233.9375 362.71875 233.402344 C 351.785156 226.070312 338.828125 222.632812 326.511719 218.570312 C 333.8125 218.246094 341.21875 218.566406 348.554688 218.445312 C 351.769531 218.472656 354.683594 219.996094 357.6875 220.964844 C 361.664062 222.410156 365.636719 223.875 369.46875 225.683594 C 371.707031 226.433594 375.195312 229.277344 377.351562 228.246094 C 379.992188 227.164062 382.605469 225.992188 385.382812 225.289062 C 385.839844 225.125 385.875 224.617188 385.445312 224.386719 Z M 385.445312 224.386719 " fill-opacity="1" fill-rule="nonzero"/></g><g clip-path="url(#4d3d34894a)"><path fill="#004aad" d="M 288.5 256.886719 C 238.179688 237.933594 184.195312 232.664062 130.964844 228.375 C 89.902344 225.246094 48.859375 221.839844 7.769531 219.101562 C 7.769531 219.109375 7.769531 219.128906 7.761719 219.136719 C 6.9375 219.1875 6.0625 219.027344 5.257812 219.222656 C 61.253906 227.335938 117.660156 233.980469 172.988281 246.289062 C 199.25 251.957031 225.207031 259.070312 250.601562 267.84375 C 251.355469 268.097656 252.03125 268.136719 252.757812 267.925781 C 259.601562 265.890625 266.433594 263.8125 273.273438 261.777344 C 278.144531 260.324219 283.011719 258.898438 287.886719 257.457031 C 288.144531 257.347656 288.511719 257.320312 288.601562 257.007812 C 288.605469 256.972656 288.546875 256.90625 288.5 256.886719 Z M 288.5 256.886719 " fill-opacity="1" fill-rule="nonzero"/></g><path fill="#004aad" d="M 316.441406 247.832031 C 259.605469 221.972656 195.492188 222.179688 134.21875 220.789062 C 134.21875 220.8125 134.21875 220.839844 134.21875 220.859375 C 116.59375 220.402344 98.953125 220.332031 81.328125 220.511719 C 133.734375 223.238281 186.398438 224.492188 238.472656 231.449219 C 263.203125 235.117188 287.777344 240.53125 311.21875 249.332031 C 312.992188 250.007812 314.625 248.605469 316.335938 248.25 C 316.425781 248.214844 316.554688 248.15625 316.5625 248.101562 C 316.574219 248.019531 316.519531 247.875 316.441406 247.832031 Z M 316.441406 247.832031 " fill-opacity="1" fill-rule="nonzero"/></g></g></g></svg>