<svg xmlns="http://www.w3.org/2000/svg" xmlns:xlink="http://www.w3.org/1999/xlink" width="569" zoomAndPan="magnify" viewBox="0 0 426.75 380.999991" height="508" preserveAspectRatio="xMidYMid meet" version="1.0"><defs><g/><clipPath id="79c15bcc68"><rect x="0" width="368" y="0" height="74"/></clipPath><clipPath id="465a89bbe9"><path d="M 20.253906 0.113281 L 405.53125 0.113281 L 405.53125 238 L 20.253906 238 Z M 20.253906 0.113281 " clip-rule="nonzero"/></clipPath><clipPath id="cf464298d5"><path d="M 24 219 L 309 219 L 309 268.453125 L 24 268.453125 Z M 24 219 " clip-rule="nonzero"/></clipPath></defs><g transform="matrix(1, 0, 0, 1, 29, 287)"><g clip-path="url(#79c15bcc68)"><g fill="#004aad" fill-opacity="1"><g transform="translate(0.452463, 52.671112)"><g><path d="M 14.5 -29.9375 L 14.5 0 L 3.515625 0 L 3.515625 -48.234375 L 14.5 -48.234375 L 33.671875 -18.296875 L 33.796875 -18.296875 L 33.796875 -48.234375 L 44.78125 -48.234375 L 44.78125 0 L 33.796875 0 L 14.625 -29.9375 Z M 14.5 -29.9375 "/></g></g></g><g fill="#004aad" fill-opacity="1"><g transform="translate(48.752739, 52.671112)"><g><path d="M 5.546875 -3.703125 C 2.742188 -6.765625 1.34375 -10.519531 1.34375 -14.96875 C 1.34375 -19.414062 2.742188 -23.175781 5.546875 -26.25 C 8.359375 -29.332031 11.925781 -30.875 16.25 -30.875 C 20.226562 -30.875 23.503906 -29.625 26.078125 -27.125 L 26.078125 -30 L 36.421875 -30 L 36.421875 0 L 26.1875 0 L 26.1875 -3.390625 L 26.078125 -3.390625 C 23.503906 -0.546875 20.226562 0.875 16.25 0.875 C 11.925781 0.875 8.359375 -0.648438 5.546875 -3.703125 Z M 14.359375 -20.046875 C 13.015625 -18.722656 12.34375 -17.03125 12.34375 -14.96875 C 12.34375 -12.90625 12.984375 -11.21875 14.265625 -9.90625 C 15.554688 -8.601562 17.253906 -7.953125 19.359375 -7.953125 C 21.378906 -7.953125 23.039062 -8.613281 24.34375 -9.9375 C 25.65625 -11.257812 26.3125 -12.9375 26.3125 -14.96875 C 26.3125 -17.03125 25.640625 -18.722656 24.296875 -20.046875 C 22.953125 -21.378906 21.304688 -22.046875 19.359375 -22.046875 C 17.367188 -22.046875 15.703125 -21.378906 14.359375 -20.046875 Z M 14.359375 -20.046875 "/></g></g></g><g fill="#004aad" fill-opacity="1"><g transform="translate(88.691104, 52.671112)"><g><path d="M 2.15625 7.359375 L 10.640625 3.21875 C 12.203125 5.789062 14.910156 7.078125 18.765625 7.078125 C 20.554688 7.078125 22.222656 6.5 23.765625 5.34375 C 25.304688 4.195312 26.078125 2.4375 26.078125 0.0625 L 26.078125 -2.15625 C 24.242188 -0.132812 20.96875 0.875 16.25 0.875 C 11.925781 0.875 8.359375 -0.648438 5.546875 -3.703125 C 2.742188 -6.765625 1.34375 -10.519531 1.34375 -14.96875 C 1.34375 -19.414062 2.742188 -23.175781 5.546875 -26.25 C 8.359375 -29.332031 11.925781 -30.875 16.25 -30.875 C 20.113281 -30.875 23.332031 -29.6875 25.90625 -27.3125 L 26.078125 -27.3125 L 26.078125 -30 L 36.421875 -30 L 36.421875 0.8125 C 36.421875 5.6875 34.800781 9.445312 31.5625 12.09375 C 28.332031 14.75 24.066406 16.078125 18.765625 16.078125 C 10.191406 16.078125 4.65625 13.171875 2.15625 7.359375 Z M 14.359375 -20.046875 C 13.015625 -18.722656 12.34375 -17.03125 12.34375 -14.96875 C 12.34375 -12.90625 12.984375 -11.21875 14.265625 -9.90625 C 15.554688 -8.601562 17.253906 -7.953125 19.359375 -7.953125 C 21.378906 -7.953125 23.039062 -8.613281 24.34375 -9.9375 C 25.65625 -11.257812 26.3125 -12.9375 26.3125 -14.96875 C 26.3125 -17.03125 25.640625 -18.722656 24.296875 -20.046875 C 22.953125 -21.378906 21.304688 -22.046875 19.359375 -22.046875 C 17.367188 -22.046875 15.703125 -21.378906 14.359375 -20.046875 Z M 14.359375 -20.046875 "/></g></g></g><g fill="#004aad" fill-opacity="1"><g transform="translate(128.62947, 52.671112)"><g><path d="M 5.546875 -3.703125 C 2.742188 -6.765625 1.34375 -10.519531 1.34375 -14.96875 C 1.34375 -19.414062 2.742188 -23.175781 5.546875 -26.25 C 8.359375 -29.332031 11.925781 -30.875 16.25 -30.875 C 20.226562 -30.875 23.503906 -29.625 26.078125 -27.125 L 26.078125 -30 L 36.421875 -30 L 36.421875 0 L 26.1875 0 L 26.1875 -3.390625 L 26.078125 -3.390625 C 23.503906 -0.546875 20.226562 0.875 16.25 0.875 C 11.925781 0.875 8.359375 -0.648438 5.546875 -3.703125 Z M 14.359375 -20.046875 C 13.015625 -18.722656 12.34375 -17.03125 12.34375 -14.96875 C 12.34375 -12.90625 12.984375 -11.21875 14.265625 -9.90625 C 15.554688 -8.601562 17.253906 -7.953125 19.359375 -7.953125 C 21.378906 -7.953125 23.039062 -8.613281 24.34375 -9.9375 C 25.65625 -11.257812 26.3125 -12.9375 26.3125 -14.96875 C 26.3125 -17.03125 25.640625 -18.722656 24.296875 -20.046875 C 22.953125 -21.378906 21.304688 -22.046875 19.359375 -22.046875 C 17.367188 -22.046875 15.703125 -21.378906 14.359375 -20.046875 Z M 14.359375 -20.046875 "/></g></g></g><g fill="#004aad" fill-opacity="1"><g transform="translate(168.567835, 52.671112)"><g><path d="M 3.515625 0 L 3.515625 -30 L 13.859375 -30 L 13.859375 -25.671875 L 13.96875 -25.671875 C 14.050781 -25.828125 14.179688 -26.019531 14.359375 -26.25 C 14.535156 -26.488281 14.914062 -26.898438 15.5 -27.484375 C 16.082031 -28.066406 16.703125 -28.59375 17.359375 -29.0625 C 18.023438 -29.53125 18.882812 -29.945312 19.9375 -30.3125 C 20.988281 -30.6875 22.0625 -30.875 23.15625 -30.875 C 24.28125 -30.875 25.390625 -30.71875 26.484375 -30.40625 C 27.578125 -30.09375 28.378906 -29.78125 28.890625 -29.46875 L 29.703125 -29 L 25.375 -20.234375 C 24.09375 -21.328125 22.300781 -21.875 20 -21.875 C 18.75 -21.875 17.675781 -21.597656 16.78125 -21.046875 C 15.882812 -20.503906 15.25 -19.84375 14.875 -19.0625 C 14.507812 -18.28125 14.25 -17.613281 14.09375 -17.0625 C 13.9375 -16.519531 13.859375 -16.09375 13.859375 -15.78125 L 13.859375 0 Z M 3.515625 0 "/></g></g></g><g fill="#004aad" fill-opacity="1"><g transform="translate(197.688336, 52.671112)"><g><path d="M 18.59375 0 L -1.640625 -48.234375 L 10.765625 -48.234375 L 22.921875 -16.546875 L 35.078125 -48.234375 L 47.484375 -48.234375 L 27.25 0 Z M 18.59375 0 "/></g></g></g><g fill="#004aad" fill-opacity="1"><g transform="translate(243.532673, 52.671112)"><g><path d="M 4.5 -46.71875 C 5.707031 -47.925781 7.148438 -48.53125 8.828125 -48.53125 C 10.503906 -48.53125 11.945312 -47.925781 13.15625 -46.71875 C 14.363281 -45.507812 14.96875 -44.066406 14.96875 -42.390625 C 14.96875 -40.710938 14.363281 -39.269531 13.15625 -38.0625 C 11.945312 -36.851562 10.503906 -36.25 8.828125 -36.25 C 7.148438 -36.25 5.707031 -36.851562 4.5 -38.0625 C 3.289062 -39.269531 2.6875 -40.710938 2.6875 -42.390625 C 2.6875 -44.066406 3.289062 -45.507812 4.5 -46.71875 Z M 3.515625 -30 L 3.515625 0 L 13.859375 0 L 13.859375 -30 Z M 3.515625 -30 "/></g></g></g><g fill="#004aad" fill-opacity="1"><g transform="translate(261.192086, 52.671112)"><g><path d="M 37.765625 -30 L 23.5 -15.671875 L 39.171875 0 L 25.84375 0 L 13.859375 -11.984375 L 13.859375 0 L 3.515625 0 L 3.515625 -50.28125 L 13.859375 -50.28125 L 13.859375 -19.53125 L 24.328125 -30 Z M 37.765625 -30 "/></g></g></g><g fill="#004aad" fill-opacity="1"><g transform="translate(298.966867, 52.671112)"><g><path d="M 5.546875 -3.703125 C 2.742188 -6.765625 1.34375 -10.519531 1.34375 -14.96875 C 1.34375 -19.414062 2.742188 -23.175781 5.546875 -26.25 C 8.359375 -29.332031 11.925781 -30.875 16.25 -30.875 C 20.226562 -30.875 23.503906 -29.625 26.078125 -27.125 L 26.078125 -30 L 36.421875 -30 L 36.421875 0 L 26.1875 0 L 26.1875 -3.390625 L 26.078125 -3.390625 C 23.503906 -0.546875 20.226562 0.875 16.25 0.875 C 11.925781 0.875 8.359375 -0.648438 5.546875 -3.703125 Z M 14.359375 -20.046875 C 13.015625 -18.722656 12.34375 -17.03125 12.34375 -14.96875 C 12.34375 -12.90625 12.984375 -11.21875 14.265625 -9.90625 C 15.554688 -8.601562 17.253906 -7.953125 19.359375 -7.953125 C 21.378906 -7.953125 23.039062 -8.613281 24.34375 -9.9375 C 25.65625 -11.257812 26.3125 -12.9375 26.3125 -14.96875 C 26.3125 -17.03125 25.640625 -18.722656 24.296875 -20.046875 C 22.953125 -21.378906 21.304688 -22.046875 19.359375 -22.046875 C 17.367188 -22.046875 15.703125 -21.378906 14.359375 -20.046875 Z M 14.359375 -20.046875 "/></g></g></g><g fill="#004aad" fill-opacity="1"><g transform="translate(338.905247, 52.671112)"><g><path d="M 16.546875 -30.875 C 18.265625 -30.875 19.957031 -30.675781 21.625 -30.28125 C 23.300781 -29.894531 24.550781 -29.507812 25.375 -29.125 L 26.609375 -28.53125 L 23.21875 -21.75 C 20.875 -23 18.648438 -23.625 16.546875 -23.625 C 15.378906 -23.625 14.550781 -23.492188 14.0625 -23.234375 C 13.570312 -22.984375 13.328125 -22.507812 13.328125 -21.8125 C 13.328125 -21.65625 13.347656 -21.5 13.390625 -21.34375 C 13.429688 -21.1875 13.507812 -21.039062 13.625 -20.90625 C 13.738281 -20.769531 13.84375 -20.648438 13.9375 -20.546875 C 14.039062 -20.453125 14.207031 -20.347656 14.4375 -20.234375 C 14.675781 -20.117188 14.863281 -20.03125 15 -19.96875 C 15.132812 -19.90625 15.359375 -19.816406 15.671875 -19.703125 C 15.984375 -19.585938 16.21875 -19.5 16.375 -19.4375 C 16.53125 -19.382812 16.789062 -19.296875 17.15625 -19.171875 C 17.53125 -19.054688 17.816406 -18.976562 18.015625 -18.9375 C 19.222656 -18.59375 20.273438 -18.203125 21.171875 -17.765625 C 22.066406 -17.335938 23.007812 -16.753906 24 -16.015625 C 25 -15.273438 25.769531 -14.335938 26.3125 -13.203125 C 26.851562 -12.078125 27.125 -10.796875 27.125 -9.359375 C 27.125 -2.535156 22.390625 0.875 12.921875 0.875 C 10.773438 0.875 8.738281 0.546875 6.8125 -0.109375 C 4.882812 -0.773438 3.488281 -1.441406 2.625 -2.109375 L 1.34375 -3.15625 L 5.546875 -10.234375 C 5.859375 -9.960938 6.269531 -9.640625 6.78125 -9.265625 C 7.289062 -8.898438 8.207031 -8.394531 9.53125 -7.75 C 10.851562 -7.101562 12.003906 -6.78125 12.984375 -6.78125 C 15.128906 -6.78125 16.203125 -7.503906 16.203125 -8.953125 C 16.203125 -9.609375 15.925781 -10.117188 15.375 -10.484375 C 14.832031 -10.859375 13.90625 -11.28125 12.59375 -11.75 C 11.289062 -12.21875 10.269531 -12.644531 9.53125 -13.03125 C 7.65625 -14.007812 6.171875 -15.113281 5.078125 -16.34375 C 3.992188 -17.570312 3.453125 -19.195312 3.453125 -21.21875 C 3.453125 -24.257812 4.628906 -26.628906 6.984375 -28.328125 C 9.347656 -30.023438 12.535156 -30.875 16.546875 -30.875 Z M 16.546875 -30.875 "/></g></g></g></g></g><g clip-path="url(#465a89bbe9)"><path fill="#004aad" d="M 405.566406 224.585938 C 401.632812 222.007812 396.917969 220.660156 392.867188 218.53125 C 393.011719 218.164062 393.503906 218.34375 393.816406 218.296875 C 396.625 218.3125 399.433594 218.332031 402.246094 218.34375 C 402.824219 218.273438 403.816406 218.574219 404.046875 217.867188 C 404.007812 216.769531 404.199219 215.441406 403.910156 214.410156 C 403.015625 213.425781 401.605469 215.320312 401.792969 212.632812 C 401.769531 209.824219 401.75 207.011719 401.726562 204.199219 C 401.632812 203.621094 401.996094 202.527344 401.179688 202.425781 C 397.320312 202.339844 393.429688 202.183594 389.582031 202.265625 C 388.632812 202.445312 389.1875 207.125 388.953125 208.207031 C 388.917969 209.046875 388.820312 209.113281 388.015625 209.128906 C 386.859375 209.152344 386.792969 209.089844 386.78125 207.878906 C 386.777344 207.246094 386.796875 206.605469 386.796875 205.964844 C 386.777344 201.085938 386.871094 196.210938 386.777344 191.328125 C 386.804688 190.722656 386.203125 190.664062 385.722656 190.722656 C 384.488281 190.796875 384.496094 190.570312 384.457031 189.484375 C 384.269531 181.332031 384.550781 173.15625 384.148438 165.019531 C 383.464844 164.921875 383.105469 165.460938 382.65625 165.789062 C 378.242188 169.246094 373.246094 172.363281 369.082031 175.949219 C 368.480469 183.398438 368.960938 191.015625 368.757812 198.511719 C 368.746094 200.792969 368.777344 203.074219 368.777344 205.355469 C 368.695312 205.789062 368.863281 206.578125 368.40625 206.75 C 367.566406 206.5625 367.984375 201.222656 367.78125 200.148438 C 367.875 197.90625 367.445312 198.296875 365.550781 198.292969 C 364.875 198.296875 365.027344 197.488281 365.003906 197.019531 C 365.054688 192.457031 365.121094 187.898438 365.160156 183.34375 C 365.175781 181.160156 365.414062 181.402344 363.214844 181.410156 C 361.203125 181.414062 361.347656 181.574219 361.347656 179.507812 C 361.332031 170.808594 361.417969 162.109375 361.34375 153.417969 C 361.332031 153.246094 361.210938 153.054688 361.089844 152.929688 C 361.050781 152.890625 360.796875 153 360.6875 153.097656 C 357.871094 155.59375 355.09375 158.144531 352.253906 160.605469 C 350.824219 161.851562 351.527344 164.050781 351.222656 165.734375 C 351.492188 168.710938 349.226562 166.78125 347.636719 167.621094 C 347.351562 169.71875 347.367188 171.835938 347.34375 173.949219 C 347.273438 174.691406 347.621094 175.878906 346.472656 175.738281 C 345.257812 175.765625 344.035156 175.761719 342.816406 175.761719 C 340.878906 175.761719 341.007812 175.921875 341.015625 173.964844 C 341.046875 152.703125 341.113281 131.433594 341.015625 110.167969 C 341.015625 109.203125 340.695312 108.636719 339.886719 108.125 C 337.335938 106.511719 334.824219 104.832031 332.320312 103.140625 C 324.652344 98.109375 317.238281 92.429688 309.324219 87.902344 C 308.726562 120.210938 309.113281 152.585938 308.910156 184.921875 C 308.902344 186.261719 308.867188 186.265625 307.582031 186.246094 C 306.453125 186.222656 306.425781 186.199219 306.398438 185.082031 C 306.347656 162.171875 306.46875 139.261719 306.34375 116.355469 C 306.324219 115.390625 306.277344 115.351562 305.355469 115.347656 C 302.441406 115.332031 299.523438 115.324219 296.609375 115.3125 C 295.238281 115.308594 295.238281 115.242188 295.238281 116.722656 C 295.21875 121.871094 295.257812 127.015625 295.191406 132.15625 C 295.527344 133.277344 290.734375 132.425781 289.964844 132.613281 C 288.792969 132.363281 289.390625 135.320312 289.238281 136.125 C 289.203125 144.242188 289.265625 152.355469 289.1875 160.46875 C 289.171875 160.84375 288.96875 161.046875 288.585938 161.054688 C 285.402344 161.054688 282.226562 161.058594 279.042969 161.070312 C 278.03125 161.074219 278.027344 161.085938 277.972656 162.144531 C 277.761719 173.597656 277.816406 185.054688 277.757812 196.507812 C 277.753906 197.960938 277.714844 197.957031 276.210938 197.960938 C 275.824219 197.960938 275.636719 197.726562 275.613281 197.367188 C 275.421875 166.136719 275.636719 134.898438 275.539062 103.664062 C 275.515625 102.714844 275.445312 102.636719 274.546875 102.648438 C 273.378906 102.664062 272.214844 102.742188 271.046875 102.765625 C 268.816406 102.804688 269.015625 102.941406 269.015625 100.710938 C 268.8125 82.933594 269.476562 64.613281 268.878906 47.097656 C 268.691406 47.042969 268.34375 47.367188 268.132812 47.582031 C 266.761719 48.988281 265.386719 50.386719 264.058594 51.832031 C 259.148438 57.1875 254.269531 62.566406 249.34375 67.90625 C 248.609375 68.699219 248.234375 69.507812 248.242188 70.589844 C 248.082031 81.722656 248.257812 92.859375 248.097656 103.992188 C 248.097656 104.996094 246.796875 104.628906 246.125 104.703125 C 244.058594 104.710938 241.988281 104.710938 239.921875 104.722656 C 237.917969 104.726562 238.195312 104.589844 238.175781 106.378906 C 238.171875 112.371094 238.121094 118.359375 238.011719 124.355469 C 237.988281 125.632812 237.957031 125.648438 236.640625 125.664062 C 234.148438 125.699219 231.65625 125.710938 229.164062 125.726562 C 228.507812 125.753906 228.414062 125.820312 228.40625 126.457031 C 228.265625 138.070312 228.355469 149.683594 228.300781 161.300781 C 228.300781 162.363281 228.292969 163.421875 228.253906 164.484375 C 228.222656 165.332031 228.070312 165.460938 227.1875 165.488281 C 226.515625 165.464844 225.949219 165.527344 225.980469 164.652344 C 225.992188 140.839844 225.957031 117.03125 225.910156 93.222656 C 225.890625 71.640625 225.957031 50.058594 225.898438 28.472656 C 226.003906 27.480469 225.105469 27.097656 224.449219 26.585938 C 212.414062 17.863281 200.652344 8.78125 188.566406 0.179688 C 187.0625 32.75 188.542969 67.628906 188.035156 100.957031 C 187.996094 100.957031 187.960938 100.957031 187.925781 100.957031 C 187.875 134.578125 188.007812 168.203125 187.910156 201.824219 C 188.203125 202.832031 184.316406 202.117188 183.746094 202.265625 C 182.136719 151.414062 183.636719 98.742188 183.148438 47.296875 C 183.078125 46.574219 183.492188 45.378906 182.457031 45.351562 C 177.894531 45.292969 173.332031 45.320312 168.773438 45.292969 C 168.402344 45.199219 167.839844 45.335938 167.738281 45.722656 C 167.484375 54.140625 167.746094 62.585938 167.578125 71.011719 C 168.0625 72.046875 160.132812 71.480469 159.136719 71.664062 C 157.230469 71.550781 157.507812 71.992188 157.480469 73.628906 C 157.445312 115.578125 157.324219 157.523438 157.351562 199.472656 C 157.351562 200.882812 157.347656 200.882812 155.964844 200.886719 C 153.820312 200.804688 153.816406 201.234375 153.871094 198.898438 C 153.859375 180.5 153.855469 162.09375 153.855469 143.695312 C 153.855469 138.078125 153.871094 132.453125 153.871094 126.832031 C 153.871094 125.980469 153.789062 125.90625 153 125.863281 C 143.140625 125.808594 133.273438 125.769531 123.40625 125.753906 C 123.03125 125.765625 122.808594 125.957031 122.800781 126.332031 C 122.761719 137.152344 122.839844 147.96875 122.835938 158.785156 C 122.835938 160.605469 122.949219 160.507812 121.097656 160.511719 C 116.960938 160.519531 112.824219 160.523438 108.6875 160.542969 C 107.851562 160.546875 107.785156 160.605469 107.761719 161.445312 C 107.332031 177.71875 107.675781 194.007812 107.558594 210.285156 C 107.53125 210.808594 107.382812 210.992188 106.914062 211 C 105.695312 211.023438 104.472656 211.027344 103.257812 211.019531 C 102.742188 211.011719 102.621094 210.890625 102.59375 210.328125 C 102.359375 191.5625 102.628906 172.789062 102.414062 154.011719 C 102.25 153.050781 102.835938 151.632812 101.753906 151.109375 C 93.90625 146.582031 86.191406 141.804688 78.296875 137.359375 C 77.894531 137.15625 77.671875 137.28125 77.640625 137.695312 C 77.578125 141.195312 77.585938 144.699219 77.570312 148.195312 C 77.542969 160.605469 77.597656 173.011719 77.535156 185.425781 C 77.570312 186.398438 76.566406 186.101562 75.925781 186.152344 C 74.757812 186.164062 73.589844 186.164062 72.429688 186.183594 C 71.585938 186.199219 71.574219 186.222656 71.527344 187.109375 C 71.441406 193.152344 71.382812 199.203125 71.320312 205.246094 C 71.300781 207.46875 71.328125 209.703125 71.304688 211.925781 C 71.300781 212.730469 71.132812 212.851562 70.367188 212.832031 C 69.410156 212.914062 69.570312 212.140625 69.558594 211.476562 C 69.59375 200.230469 69.507812 188.988281 69.601562 177.75 C 69.625 177.007812 69.34375 176.59375 68.707031 176.261719 C 62.453125 172.792969 56.320312 169.089844 50.113281 165.539062 C 48.875 164.671875 48.890625 165.261719 48.945312 166.652344 C 48.894531 176.140625 48.921875 185.640625 48.839844 195.125 C 48.878906 196.523438 47.292969 195.847656 46.417969 195.972656 C 44.402344 195.953125 44.605469 195.671875 44.582031 197.671875 C 44.53125 202.125 44.488281 206.578125 44.429688 211.035156 C 44.488281 214.53125 43.492188 213.195312 40.441406 213.347656 C 39.894531 213.328125 39.738281 213.160156 39.730469 212.53125 C 39.703125 211.050781 39.707031 209.5625 39.691406 208.078125 C 39.679688 207.332031 39.601562 207.246094 38.875 207.238281 C 35.585938 207.210938 32.296875 207.195312 29.007812 207.183594 C 28.277344 207.183594 28.167969 207.28125 28.140625 207.988281 C 28.078125 209.46875 28.035156 210.957031 27.996094 212.4375 C 27.945312 214.371094 28.054688 214.21875 26.132812 214.191406 C 24.542969 214.339844 19.964844 213.667969 20.277344 214.738281 C 20.621094 218.164062 19.011719 218.71875 23.3125 218.546875 C 115.160156 219.433594 207.203125 217.1875 298.972656 219.429688 C 317.085938 221.859375 335.125 225.109375 352.472656 230.992188 C 357.9375 232.855469 363.40625 234.714844 368.714844 237.003906 C 369.84375 237.488281 370.863281 237.558594 372.066406 237.140625 C 375.066406 236.09375 378.121094 235.21875 381.164062 234.28125 C 381.730469 234.105469 382.390625 234.148438 382.808594 233.613281 C 371.859375 226.273438 358.886719 222.828125 346.550781 218.761719 C 353.859375 218.4375 361.277344 218.757812 368.625 218.636719 C 371.84375 218.664062 374.761719 220.191406 377.769531 221.160156 C 381.753906 222.609375 385.730469 224.074219 389.570312 225.886719 C 391.8125 226.636719 395.304688 229.484375 397.464844 228.453125 C 400.105469 227.367188 402.722656 226.195312 405.507812 225.488281 C 405.964844 225.324219 405.996094 224.816406 405.566406 224.585938 Z M 405.566406 224.585938 " fill-opacity="1" fill-rule="nonzero"/></g><g clip-path="url(#cf464298d5)"><path fill="#004aad" d="M 308.484375 257.132812 C 258.089844 238.152344 204.027344 232.875 150.726562 228.578125 C 109.601562 225.445312 68.5 222.035156 27.351562 219.292969 C 27.351562 219.304688 27.351562 219.320312 27.34375 219.332031 C 26.519531 219.378906 25.644531 219.21875 24.839844 219.414062 C 80.914062 227.539062 137.398438 234.195312 192.808594 246.523438 C 219.105469 252.195312 245.101562 259.320312 270.53125 268.105469 C 271.285156 268.359375 271.960938 268.398438 272.691406 268.1875 C 279.542969 266.148438 286.382812 264.066406 293.238281 262.027344 C 298.113281 260.574219 302.988281 259.148438 307.867188 257.703125 C 308.128906 257.59375 308.496094 257.566406 308.585938 257.253906 C 308.589844 257.21875 308.53125 257.152344 308.484375 257.132812 Z M 308.484375 257.132812 " fill-opacity="1" fill-rule="nonzero"/></g><path fill="#004aad" d="M 336.464844 248.066406 C 279.546875 222.167969 215.34375 222.378906 153.980469 220.984375 C 153.980469 221.003906 153.980469 221.03125 153.980469 221.054688 C 136.332031 220.597656 118.664062 220.527344 101.015625 220.707031 C 153.496094 223.433594 206.238281 224.691406 258.382812 231.660156 C 283.152344 235.332031 307.757812 240.753906 331.238281 249.570312 C 333.011719 250.246094 334.648438 248.839844 336.359375 248.484375 C 336.449219 248.449219 336.582031 248.390625 336.585938 248.335938 C 336.597656 248.25 336.542969 248.109375 336.464844 248.066406 Z M 336.464844 248.066406 " fill-opacity="1" fill-rule="nonzero"/></svg>